<mxfile host="app.diagrams.net" modified="2024-07-12T01:56:01.195Z" agent="Mozilla/5.0 (Windows NT 10.0; Win64; x64) AppleWebKit/537.36 (KHTML, like Gecko) Chrome/126.0.0.0 Safari/537.36" version="21.2.1" etag="hso9RLH8cIqYYXD2NGMe" type="device">
  <diagram id="uqBXUlRxV93C9LDd3lzC" name="第 1 页">
    <mxGraphModel dx="1900" dy="1157" grid="1" gridSize="10" guides="1" tooltips="1" connect="1" arrows="1" fold="1" page="0" pageScale="1" pageWidth="3300" pageHeight="4681" background="none" math="0" shadow="0">
      <root>
        <mxCell id="0" />
        <mxCell id="1" parent="0" />
        <mxCell id="node28" value="&lt;p style=&quot;margin:0px;margin-top:4px;text-align:center;&quot;&gt;&lt;b&gt;AUX_TABLE&lt;/b&gt;&lt;/p&gt;&lt;hr size=&quot;1&quot;/&gt;&lt;p style=&quot;margin:0 0 0 4px;line-height:1.6;&quot;&gt; MT_COMMENT: varchar(255)&lt;/p&gt;&lt;hr size=&quot;1&quot;/&gt;&lt;p style=&quot;margin:0 0 0 4px;line-height:1.6;&quot;&gt; MT_KEY1: varchar(128)&lt;br/&gt; MT_KEY2: bigint(20)&lt;/p&gt;" style="verticalAlign=top;align=left;overflow=fill;fontSize=14;fontFamily=Helvetica;html=1;rounded=0;shadow=0;comic=0;labelBackgroundColor=none;strokeWidth=1;" parent="1" vertex="1">
          <mxGeometry x="949" y="2597" width="200" height="109" as="geometry" />
        </mxCell>
        <mxCell id="node51" value="&lt;p style=&quot;margin:0px;margin-top:4px;text-align:center;&quot;&gt;&lt;b&gt;BUCKETING_COLS&lt;/b&gt;&lt;/p&gt;&lt;hr size=&quot;1&quot;/&gt;&lt;p style=&quot;margin:0 0 0 4px;line-height:1.6;&quot;&gt; BUCKET_COL_NAME: varchar(256)&lt;/p&gt;&lt;hr size=&quot;1&quot;/&gt;&lt;p style=&quot;margin:0 0 0 4px;line-height:1.6;&quot;&gt; SD_ID: bigint(20)&lt;br/&gt; INTEGER_IDX: int(11)&lt;/p&gt;" style="verticalAlign=top;align=left;overflow=fill;fontSize=14;fontFamily=Helvetica;html=1;rounded=0;shadow=0;comic=0;labelBackgroundColor=none;strokeWidth=1;" parent="1" vertex="1">
          <mxGeometry x="652" y="394" width="230" height="109" as="geometry" />
        </mxCell>
        <mxCell id="node43" value="&lt;p style=&quot;margin:0px;margin-top:4px;text-align:center;&quot;&gt;&lt;b&gt;CDS&lt;/b&gt;&lt;/p&gt;&lt;hr size=&quot;1&quot;/&gt;&lt;p style=&quot;margin:0 0 0 4px;line-height:1.6;&quot;&gt; CD_ID: bigint(20)&lt;/p&gt;" style="verticalAlign=top;align=left;overflow=fill;fontSize=14;fontFamily=Helvetica;html=1;rounded=0;shadow=0;comic=0;labelBackgroundColor=none;strokeWidth=1;" parent="1" vertex="1">
          <mxGeometry x="830" y="-199" width="130" height="58" as="geometry" />
        </mxCell>
        <mxCell id="node71" value="&lt;p style=&quot;margin:0px;margin-top:4px;text-align:center;&quot;&gt;&lt;b&gt;COLUMNS_V2&lt;/b&gt;&lt;/p&gt;&lt;hr size=&quot;1&quot;/&gt;&lt;p style=&quot;margin:0 0 0 4px;line-height:1.6;&quot;&gt; COMMENT: varchar(256)&lt;br/&gt; TYPE_NAME: mediumtext&lt;br/&gt; INTEGER_IDX: int(11)&lt;/p&gt;&lt;hr size=&quot;1&quot;/&gt;&lt;p style=&quot;margin:0 0 0 4px;line-height:1.6;&quot;&gt; CD_ID: bigint(20)&lt;br/&gt; COLUMN_NAME: varchar(767)&lt;/p&gt;" style="verticalAlign=top;align=left;overflow=fill;fontSize=14;fontFamily=Helvetica;html=1;rounded=0;shadow=0;comic=0;labelBackgroundColor=none;strokeWidth=1;" parent="1" vertex="1">
          <mxGeometry x="-124" y="22" width="208" height="147" as="geometry" />
        </mxCell>
        <mxCell id="node32" value="&lt;p style=&quot;margin:0px;margin-top:4px;text-align:center;&quot;&gt;&lt;b&gt;COMPACTION_QUEUE&lt;/b&gt;&lt;/p&gt;&lt;hr size=&quot;1&quot;/&gt;&lt;p style=&quot;margin:0 0 0 4px;line-height:1.6;&quot;&gt; CQ_DATABASE: varchar(128)&lt;br/&gt; CQ_TABLE: varchar(128)&lt;br/&gt; CQ_PARTITION: varchar(767)&lt;br/&gt; CQ_STATE: char(1)&lt;br/&gt; CQ_TYPE: char(1)&lt;br/&gt; CQ_TBLPROPERTIES: varchar(2048)&lt;br/&gt; CQ_WORKER_ID: varchar(128)&lt;br/&gt; CQ_START: bigint(20)&lt;br/&gt; CQ_RUN_AS: varchar(128)&lt;br/&gt; CQ_HIGHEST_WRITE_ID: bigint(20)&lt;br/&gt; CQ_META_INFO: varbinary(2048)&lt;br/&gt; CQ_HADOOP_JOB_ID: varchar(32)&lt;/p&gt;&lt;hr size=&quot;1&quot;/&gt;&lt;p style=&quot;margin:0 0 0 4px;line-height:1.6;&quot;&gt; CQ_ID: bigint(20)&lt;/p&gt;" style="verticalAlign=top;align=left;overflow=fill;fontSize=14;fontFamily=Helvetica;html=1;rounded=0;shadow=0;comic=0;labelBackgroundColor=none;strokeWidth=1;" parent="1" vertex="1">
          <mxGeometry x="1778" y="1830" width="236" height="331" as="geometry" />
        </mxCell>
        <mxCell id="node44" value="&lt;p style=&quot;margin:0px;margin-top:4px;text-align:center;&quot;&gt;&lt;b&gt;COMPLETED_COMPACTIONS&lt;/b&gt;&lt;/p&gt;&lt;hr size=&quot;1&quot;/&gt;&lt;p style=&quot;margin:0 0 0 4px;line-height:1.6;&quot;&gt; CC_DATABASE: varchar(128)&lt;br/&gt; CC_TABLE: varchar(128)&lt;br/&gt; CC_PARTITION: varchar(767)&lt;br/&gt; CC_STATE: char(1)&lt;br/&gt; CC_TYPE: char(1)&lt;br/&gt; CC_TBLPROPERTIES: varchar(2048)&lt;br/&gt; CC_WORKER_ID: varchar(128)&lt;br/&gt; CC_START: bigint(20)&lt;br/&gt; CC_END: bigint(20)&lt;br/&gt; CC_RUN_AS: varchar(128)&lt;br/&gt; CC_HIGHEST_WRITE_ID: bigint(20)&lt;br/&gt; CC_META_INFO: varbinary(2048)&lt;br/&gt; CC_HADOOP_JOB_ID: varchar(32)&lt;/p&gt;&lt;hr size=&quot;1&quot;/&gt;&lt;p style=&quot;margin:0 0 0 4px;line-height:1.6;&quot;&gt; CC_ID: bigint(20)&lt;/p&gt;" style="verticalAlign=top;align=left;overflow=fill;fontSize=14;fontFamily=Helvetica;html=1;rounded=0;shadow=0;comic=0;labelBackgroundColor=none;strokeWidth=1;" parent="1" vertex="1">
          <mxGeometry x="1195" y="1830" width="247" height="354" as="geometry" />
        </mxCell>
        <mxCell id="node5" value="&lt;p style=&quot;margin:0px;margin-top:4px;text-align:center;&quot;&gt;&lt;b&gt;COMPLETED_TXN_COMPONENTS&lt;/b&gt;&lt;/p&gt;&lt;hr size=&quot;1&quot;/&gt;&lt;p style=&quot;margin:0 0 0 4px;line-height:1.6;&quot;&gt; CTC_TXNID: bigint(20)&lt;br/&gt; CTC_DATABASE: varchar(128)&lt;br/&gt; CTC_TABLE: varchar(256)&lt;br/&gt; CTC_PARTITION: varchar(767)&lt;br/&gt; CTC_TIMESTAMP: timestamp&lt;br/&gt; CTC_WRITEID: bigint(20)&lt;br/&gt; CTC_UPDATE_DELETE: char(1)&lt;/p&gt;" style="verticalAlign=top;align=left;overflow=fill;fontSize=14;fontFamily=Helvetica;html=1;rounded=0;shadow=0;comic=0;labelBackgroundColor=none;strokeWidth=1;" parent="1" vertex="1">
          <mxGeometry x="3121" y="1830" width="279" height="192" as="geometry" />
        </mxCell>
        <mxCell id="node73" value="&lt;p style=&quot;margin:0px;margin-top:4px;text-align:center;&quot;&gt;&lt;b&gt;CTLGS&lt;/b&gt;&lt;/p&gt;&lt;hr size=&quot;1&quot;/&gt;&lt;p style=&quot;margin:0 0 0 4px;line-height:1.6;&quot;&gt; NAME: varchar(256)&lt;br/&gt; DESC: varchar(4000)&lt;br/&gt; LOCATION_URI: varchar(4000)&lt;/p&gt;&lt;hr size=&quot;1&quot;/&gt;&lt;p style=&quot;margin:0 0 0 4px;line-height:1.6;&quot;&gt; CTLG_ID: bigint(20)&lt;/p&gt;" style="verticalAlign=top;align=left;overflow=fill;fontSize=14;fontFamily=Helvetica;html=1;rounded=0;shadow=0;comic=0;labelBackgroundColor=none;strokeWidth=1;" parent="1" vertex="1">
          <mxGeometry x="4079" y="-234" width="208" height="134" as="geometry" />
        </mxCell>
        <mxCell id="node12" value="&lt;p style=&quot;margin:0px;margin-top:4px;text-align:center;&quot;&gt;&lt;b&gt;DATABASE_PARAMS&lt;/b&gt;&lt;/p&gt;&lt;hr size=&quot;1&quot;/&gt;&lt;p style=&quot;margin:0 0 0 4px;line-height:1.6;&quot;&gt; PARAM_VALUE: varchar(4000)&lt;/p&gt;&lt;hr size=&quot;1&quot;/&gt;&lt;p style=&quot;margin:0 0 0 4px;line-height:1.6;&quot;&gt; DB_ID: bigint(20)&lt;br/&gt; PARAM_KEY: varchar(180)&lt;/p&gt;" style="verticalAlign=top;align=left;overflow=fill;fontSize=14;fontFamily=Helvetica;html=1;rounded=0;shadow=0;comic=0;labelBackgroundColor=none;strokeWidth=1;" parent="1" vertex="1">
          <mxGeometry x="4520" y="394" width="208" height="109" as="geometry" />
        </mxCell>
        <mxCell id="node57" value="&lt;p style=&quot;margin:0px;margin-top:4px;text-align:center;&quot;&gt;&lt;b&gt;DBS&lt;/b&gt;&lt;/p&gt;&lt;hr size=&quot;1&quot;/&gt;&lt;p style=&quot;margin:0 0 0 4px;line-height:1.6;&quot;&gt; DESC: varchar(4000)&lt;br/&gt; DB_LOCATION_URI: varchar(4000)&lt;br/&gt; NAME: varchar(128)&lt;br/&gt; OWNER_NAME: varchar(128)&lt;br/&gt; OWNER_TYPE: varchar(10)&lt;br/&gt; CTLG_NAME: varchar(256)&lt;/p&gt;&lt;hr size=&quot;1&quot;/&gt;&lt;p style=&quot;margin:0 0 0 4px;line-height:1.6;&quot;&gt; DB_ID: bigint(20)&lt;/p&gt;" style="verticalAlign=top;align=left;overflow=fill;fontSize=14;fontFamily=Helvetica;html=1;rounded=0;shadow=0;comic=0;labelBackgroundColor=none;strokeWidth=1;" parent="1" vertex="1">
          <mxGeometry x="4068" y="-1" width="231" height="193" as="geometry" />
        </mxCell>
        <mxCell id="node58" value="&lt;p style=&quot;margin:0px;margin-top:4px;text-align:center;&quot;&gt;&lt;b&gt;DB_PRIVS&lt;/b&gt;&lt;/p&gt;&lt;hr size=&quot;1&quot;/&gt;&lt;p style=&quot;margin:0 0 0 4px;line-height:1.6;&quot;&gt; CREATE_TIME: int(11)&lt;br/&gt; DB_ID: bigint(20)&lt;br/&gt; GRANT_OPTION: smallint(6)&lt;br/&gt; GRANTOR: varchar(128)&lt;br/&gt; GRANTOR_TYPE: varchar(128)&lt;br/&gt; PRINCIPAL_NAME: varchar(128)&lt;br/&gt; PRINCIPAL_TYPE: varchar(128)&lt;br/&gt; DB_PRIV: varchar(128)&lt;br/&gt; AUTHORIZER: varchar(128)&lt;/p&gt;&lt;hr size=&quot;1&quot;/&gt;&lt;p style=&quot;margin:0 0 0 4px;line-height:1.6;&quot;&gt; DB_GRANT_ID: bigint(20)&lt;/p&gt;" style="verticalAlign=top;align=left;overflow=fill;fontSize=14;fontFamily=Helvetica;html=1;rounded=0;shadow=0;comic=0;labelBackgroundColor=none;strokeWidth=1;" parent="1" vertex="1">
          <mxGeometry x="4062" y="314" width="218" height="262" as="geometry" />
        </mxCell>
        <mxCell id="node41" value="&lt;p style=&quot;margin:0px;margin-top:4px;text-align:center;&quot;&gt;&lt;b&gt;DELEGATION_TOKENS&lt;/b&gt;&lt;/p&gt;&lt;hr size=&quot;1&quot;/&gt;&lt;p style=&quot;margin:0 0 0 4px;line-height:1.6;&quot;&gt; TOKEN: varchar(767)&lt;/p&gt;&lt;hr size=&quot;1&quot;/&gt;&lt;p style=&quot;margin:0 0 0 4px;line-height:1.6;&quot;&gt; TOKEN_IDENT: varchar(767)&lt;/p&gt;" style="verticalAlign=top;align=left;overflow=fill;fontSize=14;fontFamily=Helvetica;html=1;rounded=0;shadow=0;comic=0;labelBackgroundColor=none;strokeWidth=1;" parent="1" vertex="1">
          <mxGeometry x="2269" y="2597" width="197" height="84" as="geometry" />
        </mxCell>
        <mxCell id="node38" value="&lt;p style=&quot;margin:0px;margin-top:4px;text-align:center;&quot;&gt;&lt;b&gt;FUNCS&lt;/b&gt;&lt;/p&gt;&lt;hr size=&quot;1&quot;/&gt;&lt;p style=&quot;margin:0 0 0 4px;line-height:1.6;&quot;&gt; CLASS_NAME: varchar(4000)&lt;br/&gt; CREATE_TIME: int(11)&lt;br/&gt; DB_ID: bigint(20)&lt;br/&gt; FUNC_NAME: varchar(128)&lt;br/&gt; FUNC_TYPE: int(11)&lt;br/&gt; OWNER_NAME: varchar(128)&lt;br/&gt; OWNER_TYPE: varchar(10)&lt;/p&gt;&lt;hr size=&quot;1&quot;/&gt;&lt;p style=&quot;margin:0 0 0 4px;line-height:1.6;&quot;&gt; FUNC_ID: bigint(20)&lt;/p&gt;" style="verticalAlign=top;align=left;overflow=fill;fontSize=14;fontFamily=Helvetica;html=1;rounded=0;shadow=0;comic=0;labelBackgroundColor=none;strokeWidth=1;" parent="1" vertex="1">
          <mxGeometry x="4300" y="337" width="200" height="216" as="geometry" />
        </mxCell>
        <mxCell id="node37" value="&lt;p style=&quot;margin:0px;margin-top:4px;text-align:center;&quot;&gt;&lt;b&gt;FUNC_RU&lt;/b&gt;&lt;/p&gt;&lt;hr size=&quot;1&quot;/&gt;&lt;p style=&quot;margin:0 0 0 4px;line-height:1.6;&quot;&gt; RESOURCE_TYPE: int(11)&lt;br/&gt; RESOURCE_URI: varchar(4000)&lt;/p&gt;&lt;hr size=&quot;1&quot;/&gt;&lt;p style=&quot;margin:0 0 0 4px;line-height:1.6;&quot;&gt; FUNC_ID: bigint(20)&lt;br/&gt; INTEGER_IDX: int(11)&lt;/p&gt;" style="verticalAlign=top;align=left;overflow=fill;fontSize=14;fontFamily=Helvetica;html=1;rounded=0;shadow=0;comic=0;labelBackgroundColor=none;strokeWidth=1;" parent="1" vertex="1">
          <mxGeometry x="4296" y="878" width="208" height="134" as="geometry" />
        </mxCell>
        <mxCell id="node63" value="&lt;p style=&quot;margin:0px;margin-top:4px;text-align:center;&quot;&gt;&lt;b&gt;GLOBAL_PRIVS&lt;/b&gt;&lt;/p&gt;&lt;hr size=&quot;1&quot;/&gt;&lt;p style=&quot;margin:0 0 0 4px;line-height:1.6;&quot;&gt; CREATE_TIME: int(11)&lt;br/&gt; GRANT_OPTION: smallint(6)&lt;br/&gt; GRANTOR: varchar(128)&lt;br/&gt; GRANTOR_TYPE: varchar(128)&lt;br/&gt; PRINCIPAL_NAME: varchar(128)&lt;br/&gt; PRINCIPAL_TYPE: varchar(128)&lt;br/&gt; USER_PRIV: varchar(128)&lt;br/&gt; AUTHORIZER: varchar(128)&lt;/p&gt;&lt;hr size=&quot;1&quot;/&gt;&lt;p style=&quot;margin:0 0 0 4px;line-height:1.6;&quot;&gt; USER_GRANT_ID: bigint(20)&lt;/p&gt;" style="verticalAlign=top;align=left;overflow=fill;fontSize=14;fontFamily=Helvetica;html=1;rounded=0;shadow=0;comic=0;labelBackgroundColor=none;strokeWidth=1;" parent="1" vertex="1">
          <mxGeometry x="2331" y="1830" width="218" height="239" as="geometry" />
        </mxCell>
        <mxCell id="node7" value="&lt;p style=&quot;margin:0px;margin-top:4px;text-align:center;&quot;&gt;&lt;b&gt;HIVE_LOCKS&lt;/b&gt;&lt;/p&gt;&lt;hr size=&quot;1&quot;/&gt;&lt;p style=&quot;margin:0 0 0 4px;line-height:1.6;&quot;&gt; HL_TXNID: bigint(20)&lt;br/&gt; HL_DB: varchar(128)&lt;br/&gt; HL_TABLE: varchar(128)&lt;br/&gt; HL_PARTITION: varchar(767)&lt;br/&gt; HL_LOCK_STATE: char(1)&lt;br/&gt; HL_LOCK_TYPE: char(1)&lt;br/&gt; HL_LAST_HEARTBEAT: bigint(20)&lt;br/&gt; HL_ACQUIRED_AT: bigint(20)&lt;br/&gt; HL_USER: varchar(128)&lt;br/&gt; HL_HOST: varchar(128)&lt;br/&gt; HL_HEARTBEAT_COUNT: int(11)&lt;br/&gt; HL_AGENT_INFO: varchar(128)&lt;br/&gt; HL_BLOCKEDBY_EXT_ID: bigint(20)&lt;br/&gt; HL_BLOCKEDBY_INT_ID: bigint(20)&lt;/p&gt;&lt;hr size=&quot;1&quot;/&gt;&lt;p style=&quot;margin:0 0 0 4px;line-height:1.6;&quot;&gt; HL_LOCK_EXT_ID: bigint(20)&lt;br/&gt; HL_LOCK_INT_ID: bigint(20)&lt;/p&gt;" style="verticalAlign=top;align=left;overflow=fill;fontSize=14;fontFamily=Helvetica;html=1;rounded=0;shadow=0;comic=0;labelBackgroundColor=none;strokeWidth=1;" parent="1" vertex="1">
          <mxGeometry x="651" y="1830" width="236" height="400" as="geometry" />
        </mxCell>
        <mxCell id="node65" value="&lt;p style=&quot;margin:0px;margin-top:4px;text-align:center;&quot;&gt;&lt;b&gt;IDXS&lt;/b&gt;&lt;/p&gt;&lt;hr size=&quot;1&quot;/&gt;&lt;p style=&quot;margin:0 0 0 4px;line-height:1.6;&quot;&gt; CREATE_TIME: int(11)&lt;br/&gt; DEFERRED_REBUILD: bit(1)&lt;br/&gt; INDEX_HANDLER_CLASS: varchar(4000)&lt;br/&gt; INDEX_NAME: varchar(128)&lt;br/&gt; INDEX_TBL_ID: bigint(20)&lt;br/&gt; LAST_ACCESS_TIME: int(11)&lt;br/&gt; ORIG_TBL_ID: bigint(20)&lt;br/&gt; SD_ID: bigint(20)&lt;/p&gt;&lt;hr size=&quot;1&quot;/&gt;&lt;p style=&quot;margin:0 0 0 4px;line-height:1.6;&quot;&gt; INDEX_ID: bigint(20)&lt;/p&gt;" style="verticalAlign=top;align=left;overflow=fill;fontSize=14;fontFamily=Helvetica;html=1;rounded=0;shadow=0;comic=0;labelBackgroundColor=none;strokeWidth=1;" parent="1" vertex="1">
          <mxGeometry x="1372" y="820" width="265" height="239" as="geometry" />
        </mxCell>
        <mxCell id="node10" value="&lt;p style=&quot;margin:0px;margin-top:4px;text-align:center;&quot;&gt;&lt;b&gt;INDEX_PARAMS&lt;/b&gt;&lt;/p&gt;&lt;hr size=&quot;1&quot;/&gt;&lt;p style=&quot;margin:0 0 0 4px;line-height:1.6;&quot;&gt; PARAM_VALUE: varchar(4000)&lt;/p&gt;&lt;hr size=&quot;1&quot;/&gt;&lt;p style=&quot;margin:0 0 0 4px;line-height:1.6;&quot;&gt; INDEX_ID: bigint(20)&lt;br/&gt; PARAM_KEY: varchar(256)&lt;/p&gt;" style="verticalAlign=top;align=left;overflow=fill;fontSize=14;fontFamily=Helvetica;html=1;rounded=0;shadow=0;comic=0;labelBackgroundColor=none;strokeWidth=1;" parent="1" vertex="1">
          <mxGeometry x="1400" y="1466" width="208" height="109" as="geometry" />
        </mxCell>
        <mxCell id="node13" value="&lt;p style=&quot;margin:0px;margin-top:4px;text-align:center;&quot;&gt;&lt;b&gt;I_SCHEMA&lt;/b&gt;&lt;/p&gt;&lt;hr size=&quot;1&quot;/&gt;&lt;p style=&quot;margin:0 0 0 4px;line-height:1.6;&quot;&gt; SCHEMA_TYPE: int(11)&lt;br/&gt; NAME: varchar(256)&lt;br/&gt; DB_ID: bigint(20)&lt;br/&gt; COMPATIBILITY: int(11)&lt;br/&gt; VALIDATION_LEVEL: int(11)&lt;br/&gt; CAN_EVOLVE: bit(1)&lt;br/&gt; SCHEMA_GROUP: varchar(256)&lt;br/&gt; DESCRIPTION: varchar(4000)&lt;/p&gt;&lt;hr size=&quot;1&quot;/&gt;&lt;p style=&quot;margin:0 0 0 4px;line-height:1.6;&quot;&gt; SCHEMA_ID: bigint(20)&lt;/p&gt;" style="verticalAlign=top;align=left;overflow=fill;fontSize=14;fontFamily=Helvetica;html=1;rounded=0;shadow=0;comic=0;labelBackgroundColor=none;strokeWidth=1;" parent="1" vertex="1">
          <mxGeometry x="3831" y="325" width="211" height="239" as="geometry" />
        </mxCell>
        <mxCell id="node17" value="&lt;p style=&quot;margin:0px;margin-top:4px;text-align:center;&quot;&gt;&lt;b&gt;KEY_CONSTRAINTS&lt;/b&gt;&lt;/p&gt;&lt;hr size=&quot;1&quot;/&gt;&lt;p style=&quot;margin:0 0 0 4px;line-height:1.6;&quot;&gt; CHILD_CD_ID: bigint(20)&lt;br/&gt; CHILD_INTEGER_IDX: int(11)&lt;br/&gt; CHILD_TBL_ID: bigint(20)&lt;br/&gt; PARENT_CD_ID: bigint(20)&lt;br/&gt; PARENT_INTEGER_IDX: int(11)&lt;br/&gt; PARENT_TBL_ID: bigint(20)&lt;br/&gt; CONSTRAINT_TYPE: smallint(6)&lt;br/&gt; UPDATE_RULE: smallint(6)&lt;br/&gt; DELETE_RULE: smallint(6)&lt;br/&gt; ENABLE_VALIDATE_RELY: smallint(6)&lt;br/&gt; DEFAULT_VALUE: varchar(400)&lt;/p&gt;&lt;hr size=&quot;1&quot;/&gt;&lt;p style=&quot;margin:0 0 0 4px;line-height:1.6;&quot;&gt; POSITION: bigint(20)&lt;br/&gt; CONSTRAINT_NAME: varchar(400)&lt;/p&gt;" style="verticalAlign=top;align=left;overflow=fill;fontSize=14;fontFamily=Helvetica;html=1;rounded=0;shadow=0;comic=0;labelBackgroundColor=none;strokeWidth=1;" parent="1" vertex="1">
          <mxGeometry x="1487" y="1830" width="246" height="331" as="geometry" />
        </mxCell>
        <mxCell id="node15" value="&lt;p style=&quot;margin:0px;margin-top:4px;text-align:center;&quot;&gt;&lt;b&gt;MASTER_KEYS&lt;/b&gt;&lt;/p&gt;&lt;hr size=&quot;1&quot;/&gt;&lt;p style=&quot;margin:0 0 0 4px;line-height:1.6;&quot;&gt; MASTER_KEY: varchar(767)&lt;/p&gt;&lt;hr size=&quot;1&quot;/&gt;&lt;p style=&quot;margin:0 0 0 4px;line-height:1.6;&quot;&gt; KEY_ID: int(11)&lt;/p&gt;" style="verticalAlign=top;align=left;overflow=fill;fontSize=14;fontFamily=Helvetica;html=1;rounded=0;shadow=0;comic=0;labelBackgroundColor=none;strokeWidth=1;" parent="1" vertex="1">
          <mxGeometry x="2511" y="2597" width="188" height="84" as="geometry" />
        </mxCell>
        <mxCell id="node27" value="&lt;p style=&quot;margin:0px;margin-top:4px;text-align:center;&quot;&gt;&lt;b&gt;MATERIALIZATION_REBUILD_LOCKS&lt;/b&gt;&lt;/p&gt;&lt;hr size=&quot;1&quot;/&gt;&lt;p style=&quot;margin:0 0 0 4px;line-height:1.6;&quot;&gt; MRL_DB_NAME: varchar(128)&lt;br/&gt; MRL_TBL_NAME: varchar(256)&lt;br/&gt; MRL_LAST_HEARTBEAT: bigint(20)&lt;/p&gt;&lt;hr size=&quot;1&quot;/&gt;&lt;p style=&quot;margin:0 0 0 4px;line-height:1.6;&quot;&gt; MRL_TXN_ID: bigint(20)&lt;/p&gt;" style="verticalAlign=top;align=left;overflow=fill;fontSize=14;fontFamily=Helvetica;html=1;rounded=0;shadow=0;comic=0;labelBackgroundColor=none;strokeWidth=1;" parent="1" vertex="1">
          <mxGeometry x="3966" y="1830" width="301" height="134" as="geometry" />
        </mxCell>
        <mxCell id="node36" value="&lt;p style=&quot;margin:0px;margin-top:4px;text-align:center;&quot;&gt;&lt;b&gt;METASTORE_DB_PROPERTIES&lt;/b&gt;&lt;/p&gt;&lt;hr size=&quot;1&quot;/&gt;&lt;p style=&quot;margin:0 0 0 4px;line-height:1.6;&quot;&gt; PROPERTY_VALUE: varchar(1000)&lt;br/&gt; DESCRIPTION: varchar(1000)&lt;/p&gt;&lt;hr size=&quot;1&quot;/&gt;&lt;p style=&quot;margin:0 0 0 4px;line-height:1.6;&quot;&gt; PROPERTY_KEY: varchar(255)&lt;/p&gt;" style="verticalAlign=top;align=left;overflow=fill;fontSize=14;fontFamily=Helvetica;html=1;rounded=0;shadow=0;comic=0;labelBackgroundColor=none;strokeWidth=1;" parent="1" vertex="1">
          <mxGeometry x="101" y="2597" width="252" height="109" as="geometry" />
        </mxCell>
        <mxCell id="node61" value="&lt;p style=&quot;margin:0px;margin-top:4px;text-align:center;&quot;&gt;&lt;b&gt;MIN_HISTORY_LEVEL&lt;/b&gt;&lt;/p&gt;&lt;hr size=&quot;1&quot;/&gt;&lt;p style=&quot;margin:0 0 0 4px;line-height:1.6;&quot;&gt; MHL_MIN_OPEN_TXNID: bigint(20)&lt;/p&gt;&lt;hr size=&quot;1&quot;/&gt;&lt;p style=&quot;margin:0 0 0 4px;line-height:1.6;&quot;&gt; MHL_TXNID: bigint(20)&lt;/p&gt;" style="verticalAlign=top;align=left;overflow=fill;fontSize=14;fontFamily=Helvetica;html=1;rounded=0;shadow=0;comic=0;labelBackgroundColor=none;strokeWidth=1;" parent="1" vertex="1">
          <mxGeometry x="1446" y="2597" width="240" height="84" as="geometry" />
        </mxCell>
        <mxCell id="node4" value="&lt;p style=&quot;margin:0px;margin-top:4px;text-align:center;&quot;&gt;&lt;b&gt;MV_CREATION_METADATA&lt;/b&gt;&lt;/p&gt;&lt;hr size=&quot;1&quot;/&gt;&lt;p style=&quot;margin:0 0 0 4px;line-height:1.6;&quot;&gt; CAT_NAME: varchar(256)&lt;br/&gt; DB_NAME: varchar(128)&lt;br/&gt; TBL_NAME: varchar(256)&lt;br/&gt; TXN_LIST: text&lt;br/&gt; MATERIALIZATION_TIME: bigint(20)&lt;/p&gt;&lt;hr size=&quot;1&quot;/&gt;&lt;p style=&quot;margin:0 0 0 4px;line-height:1.6;&quot;&gt; MV_CREATION_METADATA_ID: bigint(20)&lt;/p&gt;" style="verticalAlign=top;align=left;overflow=fill;fontSize=14;fontFamily=Helvetica;html=1;rounded=0;shadow=0;comic=0;labelBackgroundColor=none;strokeWidth=1;" parent="1" vertex="1">
          <mxGeometry x="902" y="360" width="278" height="170" as="geometry" />
        </mxCell>
        <mxCell id="node42" value="&lt;p style=&quot;margin:0px;margin-top:4px;text-align:center;&quot;&gt;&lt;b&gt;MV_TABLES_USED&lt;/b&gt;&lt;/p&gt;&lt;hr size=&quot;1&quot;/&gt;&lt;p style=&quot;margin:0 0 0 4px;line-height:1.6;&quot;&gt; MV_CREATION_METADATA_ID: bigint(20)&lt;br/&gt; TBL_ID: bigint(20)&lt;/p&gt;" style="verticalAlign=top;align=left;overflow=fill;fontSize=14;fontFamily=Helvetica;html=1;rounded=0;shadow=0;comic=0;labelBackgroundColor=none;strokeWidth=1;" parent="1" vertex="1">
          <mxGeometry x="1657" y="901" width="278" height="83" as="geometry" />
        </mxCell>
        <mxCell id="node35" value="&lt;p style=&quot;margin:0px;margin-top:4px;text-align:center;&quot;&gt;&lt;b&gt;NEXT_COMPACTION_QUEUE_ID&lt;/b&gt;&lt;/p&gt;&lt;hr size=&quot;1&quot;/&gt;&lt;p style=&quot;margin:0 0 0 4px;line-height:1.6;&quot;&gt; NCQ_NEXT: bigint(20)&lt;/p&gt;" style="verticalAlign=top;align=left;overflow=fill;fontSize=14;fontFamily=Helvetica;html=1;rounded=0;shadow=0;comic=0;labelBackgroundColor=none;strokeWidth=1;" parent="1" vertex="1">
          <mxGeometry x="2744" y="2597" width="266" height="58" as="geometry" />
        </mxCell>
        <mxCell id="node45" value="&lt;p style=&quot;margin:0px;margin-top:4px;text-align:center;&quot;&gt;&lt;b&gt;NEXT_LOCK_ID&lt;/b&gt;&lt;/p&gt;&lt;hr size=&quot;1&quot;/&gt;&lt;p style=&quot;margin:0 0 0 4px;line-height:1.6;&quot;&gt; NL_NEXT: bigint(20)&lt;/p&gt;" style="verticalAlign=top;align=left;overflow=fill;fontSize=14;fontFamily=Helvetica;html=1;rounded=0;shadow=0;comic=0;labelBackgroundColor=none;strokeWidth=1;" parent="1" vertex="1">
          <mxGeometry x="3269" y="2597" width="149" height="58" as="geometry" />
        </mxCell>
        <mxCell id="node50" value="&lt;p style=&quot;margin:0px;margin-top:4px;text-align:center;&quot;&gt;&lt;b&gt;NEXT_TXN_ID&lt;/b&gt;&lt;/p&gt;&lt;hr size=&quot;1&quot;/&gt;&lt;p style=&quot;margin:0 0 0 4px;line-height:1.6;&quot;&gt; NTXN_NEXT: bigint(20)&lt;/p&gt;" style="verticalAlign=top;align=left;overflow=fill;fontSize=14;fontFamily=Helvetica;html=1;rounded=0;shadow=0;comic=0;labelBackgroundColor=none;strokeWidth=1;" parent="1" vertex="1">
          <mxGeometry x="3055" y="2597" width="169" height="58" as="geometry" />
        </mxCell>
        <mxCell id="node3" value="&lt;p style=&quot;margin:0px;margin-top:4px;text-align:center;&quot;&gt;&lt;b&gt;NEXT_WRITE_ID&lt;/b&gt;&lt;/p&gt;&lt;hr size=&quot;1&quot;/&gt;&lt;p style=&quot;margin:0 0 0 4px;line-height:1.6;&quot;&gt; NWI_DATABASE: varchar(128)&lt;br/&gt; NWI_TABLE: varchar(256)&lt;br/&gt; NWI_NEXT: bigint(20)&lt;/p&gt;" style="verticalAlign=top;align=left;overflow=fill;fontSize=14;fontFamily=Helvetica;html=1;rounded=0;shadow=0;comic=0;labelBackgroundColor=none;strokeWidth=1;" parent="1" vertex="1">
          <mxGeometry x="1194" y="2597" width="207" height="108" as="geometry" />
        </mxCell>
        <mxCell id="node11" value="&lt;p style=&quot;margin:0px;margin-top:4px;text-align:center;&quot;&gt;&lt;b&gt;NOTIFICATION_LOG&lt;/b&gt;&lt;/p&gt;&lt;hr size=&quot;1&quot;/&gt;&lt;p style=&quot;margin:0 0 0 4px;line-height:1.6;&quot;&gt; EVENT_ID: bigint(20)&lt;br/&gt; EVENT_TIME: int(11)&lt;br/&gt; EVENT_TYPE: varchar(32)&lt;br/&gt; CAT_NAME: varchar(256)&lt;br/&gt; DB_NAME: varchar(128)&lt;br/&gt; TBL_NAME: varchar(256)&lt;br/&gt; MESSAGE: longtext&lt;br/&gt; MESSAGE_FORMAT: varchar(16)&lt;/p&gt;&lt;hr size=&quot;1&quot;/&gt;&lt;p style=&quot;margin:0 0 0 4px;line-height:1.6;&quot;&gt; NL_ID: bigint(20)&lt;/p&gt;" style="verticalAlign=top;align=left;overflow=fill;fontSize=14;fontFamily=Helvetica;html=1;rounded=0;shadow=0;comic=0;labelBackgroundColor=none;strokeWidth=1;" parent="1" vertex="1">
          <mxGeometry x="2594" y="1830" width="217" height="239" as="geometry" />
        </mxCell>
        <mxCell id="node70" value="&lt;p style=&quot;margin:0px;margin-top:4px;text-align:center;&quot;&gt;&lt;b&gt;NOTIFICATION_SEQUENCE&lt;/b&gt;&lt;/p&gt;&lt;hr size=&quot;1&quot;/&gt;&lt;p style=&quot;margin:0 0 0 4px;line-height:1.6;&quot;&gt; NEXT_EVENT_ID: bigint(20)&lt;/p&gt;&lt;hr size=&quot;1&quot;/&gt;&lt;p style=&quot;margin:0 0 0 4px;line-height:1.6;&quot;&gt; NNI_ID: bigint(20)&lt;/p&gt;" style="verticalAlign=top;align=left;overflow=fill;fontSize=14;fontFamily=Helvetica;html=1;rounded=0;shadow=0;comic=0;labelBackgroundColor=none;strokeWidth=1;" parent="1" vertex="1">
          <mxGeometry x="1731" y="2597" width="229" height="84" as="geometry" />
        </mxCell>
        <mxCell id="node30" value="&lt;p style=&quot;margin:0px;margin-top:4px;text-align:center;&quot;&gt;&lt;b&gt;NUCLEUS_TABLES&lt;/b&gt;&lt;/p&gt;&lt;hr size=&quot;1&quot;/&gt;&lt;p style=&quot;margin:0 0 0 4px;line-height:1.6;&quot;&gt; TABLE_NAME: varchar(128)&lt;br/&gt; TYPE: varchar(4)&lt;br/&gt; OWNER: varchar(2)&lt;br/&gt; VERSION: varchar(20)&lt;br/&gt; INTERFACE_NAME: varchar(255)&lt;/p&gt;&lt;hr size=&quot;1&quot;/&gt;&lt;p style=&quot;margin:0 0 0 4px;line-height:1.6;&quot;&gt; CLASS_NAME: varchar(128)&lt;/p&gt;" style="verticalAlign=top;align=left;overflow=fill;fontSize=14;fontFamily=Helvetica;html=1;rounded=0;shadow=0;comic=0;labelBackgroundColor=none;strokeWidth=1;" parent="1" vertex="1">
          <mxGeometry x="3445" y="1830" width="220" height="170" as="geometry" />
        </mxCell>
        <mxCell id="node52" value="&lt;p style=&quot;margin:0px;margin-top:4px;text-align:center;&quot;&gt;&lt;b&gt;PARTITIONS&lt;/b&gt;&lt;/p&gt;&lt;hr size=&quot;1&quot;/&gt;&lt;p style=&quot;margin:0 0 0 4px;line-height:1.6;&quot;&gt; CREATE_TIME: int(11)&lt;br/&gt; LAST_ACCESS_TIME: int(11)&lt;br/&gt; PART_NAME: varchar(767)&lt;br/&gt; SD_ID: bigint(20)&lt;br/&gt; TBL_ID: bigint(20)&lt;/p&gt;&lt;hr size=&quot;1&quot;/&gt;&lt;p style=&quot;margin:0 0 0 4px;line-height:1.6;&quot;&gt; PART_ID: bigint(20)&lt;/p&gt;" style="verticalAlign=top;align=left;overflow=fill;fontSize=14;fontFamily=Helvetica;html=1;rounded=0;shadow=0;comic=0;labelBackgroundColor=none;strokeWidth=1;" parent="1" vertex="1">
          <mxGeometry x="3406" y="855" width="192" height="170" as="geometry" />
        </mxCell>
        <mxCell id="node67" value="&lt;p style=&quot;margin:0px;margin-top:4px;text-align:center;&quot;&gt;&lt;b&gt;PARTITION_EVENTS&lt;/b&gt;&lt;/p&gt;&lt;hr size=&quot;1&quot;/&gt;&lt;p style=&quot;margin:0 0 0 4px;line-height:1.6;&quot;&gt; CAT_NAME: varchar(256)&lt;br/&gt; DB_NAME: varchar(128)&lt;br/&gt; EVENT_TIME: bigint(20)&lt;br/&gt; EVENT_TYPE: int(11)&lt;br/&gt; PARTITION_NAME: varchar(767)&lt;br/&gt; TBL_NAME: varchar(256)&lt;/p&gt;&lt;hr size=&quot;1&quot;/&gt;&lt;p style=&quot;margin:0 0 0 4px;line-height:1.6;&quot;&gt; PART_NAME_ID: bigint(20)&lt;/p&gt;" style="verticalAlign=top;align=left;overflow=fill;fontSize=14;fontFamily=Helvetica;html=1;rounded=0;shadow=0;comic=0;labelBackgroundColor=none;strokeWidth=1;" parent="1" vertex="1">
          <mxGeometry x="2856" y="1830" width="220" height="193" as="geometry" />
        </mxCell>
        <mxCell id="node64" value="&lt;p style=&quot;margin:0px;margin-top:4px;text-align:center;&quot;&gt;&lt;b&gt;PARTITION_KEYS&lt;/b&gt;&lt;/p&gt;&lt;hr size=&quot;1&quot;/&gt;&lt;p style=&quot;margin:0 0 0 4px;line-height:1.6;&quot;&gt; PKEY_COMMENT: varchar(4000)&lt;br/&gt; PKEY_TYPE: varchar(767)&lt;br/&gt; INTEGER_IDX: int(11)&lt;/p&gt;&lt;hr size=&quot;1&quot;/&gt;&lt;p style=&quot;margin:0 0 0 4px;line-height:1.6;&quot;&gt; TBL_ID: bigint(20)&lt;br/&gt; PKEY_NAME: varchar(128)&lt;/p&gt;" style="verticalAlign=top;align=left;overflow=fill;fontSize=14;fontFamily=Helvetica;html=1;rounded=0;shadow=0;comic=0;labelBackgroundColor=none;strokeWidth=1;" parent="1" vertex="1">
          <mxGeometry x="2360" y="866" width="220" height="147" as="geometry" />
        </mxCell>
        <mxCell id="node69" value="&lt;p style=&quot;margin:0px;margin-top:4px;text-align:center;&quot;&gt;&lt;b&gt;PARTITION_KEY_VALS&lt;/b&gt;&lt;/p&gt;&lt;hr size=&quot;1&quot;/&gt;&lt;p style=&quot;margin:0 0 0 4px;line-height:1.6;&quot;&gt; PART_KEY_VAL: varchar(256)&lt;/p&gt;&lt;hr size=&quot;1&quot;/&gt;&lt;p style=&quot;margin:0 0 0 4px;line-height:1.6;&quot;&gt; PART_ID: bigint(20)&lt;br/&gt; INTEGER_IDX: int(11)&lt;/p&gt;" style="verticalAlign=top;align=left;overflow=fill;fontSize=14;fontFamily=Helvetica;html=1;rounded=0;shadow=0;comic=0;labelBackgroundColor=none;strokeWidth=1;" parent="1" vertex="1">
          <mxGeometry x="3403" y="1466" width="199" height="134" as="geometry" />
        </mxCell>
        <mxCell id="node21" value="&lt;p style=&quot;margin:0px;margin-top:4px;text-align:center;&quot;&gt;&lt;b&gt;PARTITION_PARAMS&lt;/b&gt;&lt;/p&gt;&lt;hr size=&quot;1&quot;/&gt;&lt;p style=&quot;margin:0 0 0 4px;line-height:1.6;&quot;&gt; PARAM_VALUE: varchar(4000)&lt;/p&gt;&lt;hr size=&quot;1&quot;/&gt;&lt;p style=&quot;margin:0 0 0 4px;line-height:1.6;&quot;&gt; PART_ID: bigint(20)&lt;br/&gt; PARAM_KEY: varchar(256)&lt;/p&gt;" style="verticalAlign=top;align=left;overflow=fill;fontSize=14;fontFamily=Helvetica;html=1;rounded=0;shadow=0;comic=0;labelBackgroundColor=none;strokeWidth=1;" parent="1" vertex="1">
          <mxGeometry x="3622" y="1466" width="208" height="134" as="geometry" />
        </mxCell>
        <mxCell id="node46" value="&lt;p style=&quot;margin:0px;margin-top:4px;text-align:center;&quot;&gt;&lt;b&gt;PART_COL_PRIVS&lt;/b&gt;&lt;/p&gt;&lt;hr size=&quot;1&quot;/&gt;&lt;p style=&quot;margin:0 0 0 4px;line-height:1.6;&quot;&gt; COLUMN_NAME: varchar(767)&lt;br/&gt; CREATE_TIME: int(11)&lt;br/&gt; GRANT_OPTION: smallint(6)&lt;br/&gt; GRANTOR: varchar(128)&lt;br/&gt; GRANTOR_TYPE: varchar(128)&lt;br/&gt; PART_ID: bigint(20)&lt;br/&gt; PRINCIPAL_NAME: varchar(128)&lt;br/&gt; PRINCIPAL_TYPE: varchar(128)&lt;br/&gt; PART_COL_PRIV: varchar(128)&lt;br/&gt; AUTHORIZER: varchar(128)&lt;/p&gt;&lt;hr size=&quot;1&quot;/&gt;&lt;p style=&quot;margin:0 0 0 4px;line-height:1.6;&quot;&gt; PART_COLUMN_GRANT_ID: bigint(20)&lt;/p&gt;" style="verticalAlign=top;align=left;overflow=fill;fontSize=14;fontFamily=Helvetica;html=1;rounded=0;shadow=0;comic=0;labelBackgroundColor=none;strokeWidth=1;" parent="1" vertex="1">
          <mxGeometry x="2714" y="1374" width="255" height="306" as="geometry" />
        </mxCell>
        <mxCell id="node49" value="&lt;p style=&quot;margin:0px;margin-top:4px;text-align:center;&quot;&gt;&lt;b&gt;PART_COL_STATS&lt;/b&gt;&lt;/p&gt;&lt;hr size=&quot;1&quot;/&gt;&lt;p style=&quot;margin:0 0 0 4px;line-height:1.6;&quot;&gt; CAT_NAME: varchar(256)&lt;br/&gt; DB_NAME: varchar(128)&lt;br/&gt; TABLE_NAME: varchar(256)&lt;br/&gt; PARTITION_NAME: varchar(767)&lt;br/&gt; COLUMN_NAME: varchar(767)&lt;br/&gt; COLUMN_TYPE: varchar(128)&lt;br/&gt; PART_ID: bigint(20)&lt;br/&gt; LONG_LOW_VALUE: bigint(20)&lt;br/&gt; LONG_HIGH_VALUE: bigint(20)&lt;br/&gt; DOUBLE_HIGH_VALUE: double(53,4)&lt;br/&gt; DOUBLE_LOW_VALUE: double(53,4)&lt;br/&gt; BIG_DECIMAL_LOW_VALUE: varchar(4000)&lt;br/&gt; BIG_DECIMAL_HIGH_VALUE: varchar(4000)&lt;br/&gt; NUM_NULLS: bigint(20)&lt;br/&gt; NUM_DISTINCTS: bigint(20)&lt;br/&gt; BIT_VECTOR: blob&lt;br/&gt; AVG_COL_LEN: double(53,4)&lt;br/&gt; MAX_COL_LEN: bigint(20)&lt;br/&gt; NUM_TRUES: bigint(20)&lt;br/&gt; NUM_FALSES: bigint(20)&lt;br/&gt; LAST_ANALYZED: bigint(20)&lt;/p&gt;&lt;hr size=&quot;1&quot;/&gt;&lt;p style=&quot;margin:0 0 0 4px;line-height:1.6;&quot;&gt; CS_ID: bigint(20)&lt;/p&gt;" style="verticalAlign=top;align=left;overflow=fill;fontSize=14;fontFamily=Helvetica;html=1;rounded=0;shadow=0;comic=0;labelBackgroundColor=none;strokeWidth=1;" parent="1" vertex="1">
          <mxGeometry x="2411" y="1247" width="283" height="538" as="geometry" />
        </mxCell>
        <mxCell id="node33" value="&lt;p style=&quot;margin:0px;margin-top:4px;text-align:center;&quot;&gt;&lt;b&gt;PART_PRIVS&lt;/b&gt;&lt;/p&gt;&lt;hr size=&quot;1&quot;/&gt;&lt;p style=&quot;margin:0 0 0 4px;line-height:1.6;&quot;&gt; CREATE_TIME: int(11)&lt;br/&gt; GRANT_OPTION: smallint(6)&lt;br/&gt; GRANTOR: varchar(128)&lt;br/&gt; GRANTOR_TYPE: varchar(128)&lt;br/&gt; PART_ID: bigint(20)&lt;br/&gt; PRINCIPAL_NAME: varchar(128)&lt;br/&gt; PRINCIPAL_TYPE: varchar(128)&lt;br/&gt; PART_PRIV: varchar(128)&lt;br/&gt; AUTHORIZER: varchar(128)&lt;/p&gt;&lt;hr size=&quot;1&quot;/&gt;&lt;p style=&quot;margin:0 0 0 4px;line-height:1.6;&quot;&gt; PART_GRANT_ID: bigint(20)&lt;/p&gt;" style="verticalAlign=top;align=left;overflow=fill;fontSize=14;fontFamily=Helvetica;html=1;rounded=0;shadow=0;comic=0;labelBackgroundColor=none;strokeWidth=1;" parent="1" vertex="1">
          <mxGeometry x="3850" y="1385" width="218" height="285" as="geometry" />
        </mxCell>
        <mxCell id="node56" value="&lt;p style=&quot;margin:0px;margin-top:4px;text-align:center;&quot;&gt;&lt;b&gt;REPL_TXN_MAP&lt;/b&gt;&lt;/p&gt;&lt;hr size=&quot;1&quot;/&gt;&lt;p style=&quot;margin:0 0 0 4px;line-height:1.6;&quot;&gt; RTM_TARGET_TXN_ID: bigint(20)&lt;/p&gt;&lt;hr size=&quot;1&quot;/&gt;&lt;p style=&quot;margin:0 0 0 4px;line-height:1.6;&quot;&gt; RTM_REPL_POLICY: varchar(256)&lt;br/&gt; RTM_SRC_TXN_ID: bigint(20)&lt;/p&gt;" style="verticalAlign=top;align=left;overflow=fill;fontSize=14;fontFamily=Helvetica;html=1;rounded=0;shadow=0;comic=0;labelBackgroundColor=none;strokeWidth=1;" parent="1" vertex="1">
          <mxGeometry x="679" y="2597" width="225" height="109" as="geometry" />
        </mxCell>
        <mxCell id="node0" value="&lt;p style=&quot;margin:0px;margin-top:4px;text-align:center;&quot;&gt;&lt;b&gt;ROLES&lt;/b&gt;&lt;/p&gt;&lt;hr size=&quot;1&quot;/&gt;&lt;p style=&quot;margin:0 0 0 4px;line-height:1.6;&quot;&gt; CREATE_TIME: int(11)&lt;br/&gt; OWNER_NAME: varchar(128)&lt;br/&gt; ROLE_NAME: varchar(128)&lt;/p&gt;&lt;hr size=&quot;1&quot;/&gt;&lt;p style=&quot;margin:0 0 0 4px;line-height:1.6;&quot;&gt; ROLE_ID: bigint(20)&lt;/p&gt;" style="verticalAlign=top;align=left;overflow=fill;fontSize=14;fontFamily=Helvetica;html=1;rounded=0;shadow=0;comic=0;labelBackgroundColor=none;strokeWidth=1;" parent="1" vertex="1">
          <mxGeometry x="941" y="1830" width="200" height="134" as="geometry" />
        </mxCell>
        <mxCell id="node47" value="&lt;p style=&quot;margin:0px;margin-top:4px;text-align:center;&quot;&gt;&lt;b&gt;ROLE_MAP&lt;/b&gt;&lt;/p&gt;&lt;hr size=&quot;1&quot;/&gt;&lt;p style=&quot;margin:0 0 0 4px;line-height:1.6;&quot;&gt; ADD_TIME: int(11)&lt;br/&gt; GRANT_OPTION: smallint(6)&lt;br/&gt; GRANTOR: varchar(128)&lt;br/&gt; GRANTOR_TYPE: varchar(128)&lt;br/&gt; PRINCIPAL_NAME: varchar(128)&lt;br/&gt; PRINCIPAL_TYPE: varchar(128)&lt;br/&gt; ROLE_ID: bigint(20)&lt;/p&gt;&lt;hr size=&quot;1&quot;/&gt;&lt;p style=&quot;margin:0 0 0 4px;line-height:1.6;&quot;&gt; ROLE_GRANT_ID: bigint(20)&lt;/p&gt;" style="verticalAlign=top;align=left;overflow=fill;fontSize=14;fontFamily=Helvetica;html=1;rounded=0;shadow=0;comic=0;labelBackgroundColor=none;strokeWidth=1;" parent="1" vertex="1">
          <mxGeometry x="932" y="2004" width="218" height="216" as="geometry" />
        </mxCell>
        <mxCell id="node24" value="&lt;p style=&quot;margin:0px;margin-top:4px;text-align:center;&quot;&gt;&lt;b&gt;RUNTIME_STATS&lt;/b&gt;&lt;/p&gt;&lt;hr size=&quot;1&quot;/&gt;&lt;p style=&quot;margin:0 0 0 4px;line-height:1.6;&quot;&gt; CREATE_TIME: bigint(20)&lt;br/&gt; WEIGHT: bigint(20)&lt;br/&gt; PAYLOAD: blob&lt;/p&gt;&lt;hr size=&quot;1&quot;/&gt;&lt;p style=&quot;margin:0 0 0 4px;line-height:1.6;&quot;&gt; RS_ID: bigint(20)&lt;/p&gt;" style="verticalAlign=top;align=left;overflow=fill;fontSize=14;fontFamily=Helvetica;html=1;rounded=0;shadow=0;comic=0;labelBackgroundColor=none;strokeWidth=1;" parent="1" vertex="1">
          <mxGeometry x="4312" y="1830" width="176" height="134" as="geometry" />
        </mxCell>
        <mxCell id="node34" value="&lt;p style=&quot;margin:0px;margin-top:4px;text-align:center;&quot;&gt;&lt;b&gt;SCHEMA_VERSION&lt;/b&gt;&lt;/p&gt;&lt;hr size=&quot;1&quot;/&gt;&lt;p style=&quot;margin:0 0 0 4px;line-height:1.6;&quot;&gt; SCHEMA_ID: bigint(20)&lt;br/&gt; VERSION: int(11)&lt;br/&gt; CREATED_AT: bigint(20)&lt;br/&gt; CD_ID: bigint(20)&lt;br/&gt; STATE: int(11)&lt;br/&gt; DESCRIPTION: varchar(4000)&lt;br/&gt; SCHEMA_TEXT: mediumtext&lt;br/&gt; FINGERPRINT: varchar(256)&lt;br/&gt; SCHEMA_VERSION_NAME: varchar(256)&lt;br/&gt; SERDE_ID: bigint(20)&lt;/p&gt;&lt;hr size=&quot;1&quot;/&gt;&lt;p style=&quot;margin:0 0 0 4px;line-height:1.6;&quot;&gt; SCHEMA_VERSION_ID: bigint(20)&lt;/p&gt;" style="verticalAlign=top;align=left;overflow=fill;fontSize=14;fontFamily=Helvetica;html=1;rounded=0;shadow=0;comic=0;labelBackgroundColor=none;strokeWidth=1;" parent="1" vertex="1">
          <mxGeometry x="3644" y="797" width="266" height="285" as="geometry" />
        </mxCell>
        <mxCell id="node29" value="&lt;p style=&quot;margin:0px;margin-top:4px;text-align:center;&quot;&gt;&lt;b&gt;SDS&lt;/b&gt;&lt;/p&gt;&lt;hr size=&quot;1&quot;/&gt;&lt;p style=&quot;margin:0 0 0 4px;line-height:1.6;&quot;&gt; CD_ID: bigint(20)&lt;br/&gt; INPUT_FORMAT: varchar(4000)&lt;br/&gt; IS_COMPRESSED: bit(1)&lt;br/&gt; IS_STOREDASSUBDIRECTORIES: bit(1)&lt;br/&gt; LOCATION: varchar(4000)&lt;br/&gt; NUM_BUCKETS: int(11)&lt;br/&gt; OUTPUT_FORMAT: varchar(4000)&lt;br/&gt; SERDE_ID: bigint(20)&lt;/p&gt;&lt;hr size=&quot;1&quot;/&gt;&lt;p style=&quot;margin:0 0 0 4px;line-height:1.6;&quot;&gt; SD_ID: bigint(20)&lt;/p&gt;" style="verticalAlign=top;align=left;overflow=fill;fontSize=14;fontFamily=Helvetica;html=1;rounded=0;shadow=0;comic=0;labelBackgroundColor=none;strokeWidth=1;" parent="1" vertex="1">
          <mxGeometry x="831" y="-24" width="255" height="239" as="geometry" />
        </mxCell>
        <mxCell id="node22" value="&lt;p style=&quot;margin:0px;margin-top:4px;text-align:center;&quot;&gt;&lt;b&gt;SD_PARAMS&lt;/b&gt;&lt;/p&gt;&lt;hr size=&quot;1&quot;/&gt;&lt;p style=&quot;margin:0 0 0 4px;line-height:1.6;&quot;&gt; PARAM_VALUE: mediumtext&lt;/p&gt;&lt;hr size=&quot;1&quot;/&gt;&lt;p style=&quot;margin:0 0 0 4px;line-height:1.6;&quot;&gt; SD_ID: bigint(20)&lt;br/&gt; PARAM_KEY: varchar(256)&lt;/p&gt;" style="verticalAlign=top;align=left;overflow=fill;fontSize=14;fontFamily=Helvetica;html=1;rounded=0;shadow=0;comic=0;labelBackgroundColor=none;strokeWidth=1;" parent="1" vertex="1">
          <mxGeometry x="1200" y="394" width="200" height="109" as="geometry" />
        </mxCell>
        <mxCell id="node14" value="&lt;p style=&quot;margin:0px;margin-top:4px;text-align:center;&quot;&gt;&lt;b&gt;SEQUENCE_TABLE&lt;/b&gt;&lt;/p&gt;&lt;hr size=&quot;1&quot;/&gt;&lt;p style=&quot;margin:0 0 0 4px;line-height:1.6;&quot;&gt; NEXT_VAL: bigint(20)&lt;/p&gt;&lt;hr size=&quot;1&quot;/&gt;&lt;p style=&quot;margin:0 0 0 4px;line-height:1.6;&quot;&gt; SEQUENCE_NAME: varchar(255)&lt;/p&gt;" style="verticalAlign=top;align=left;overflow=fill;fontSize=14;fontFamily=Helvetica;html=1;rounded=0;shadow=0;comic=0;labelBackgroundColor=none;strokeWidth=1;" parent="1" vertex="1">
          <mxGeometry x="2005" y="2597" width="219" height="84" as="geometry" />
        </mxCell>
        <mxCell id="node16" value="&lt;p style=&quot;margin:0px;margin-top:4px;text-align:center;&quot;&gt;&lt;b&gt;SERDES&lt;/b&gt;&lt;/p&gt;&lt;hr size=&quot;1&quot;/&gt;&lt;p style=&quot;margin:0 0 0 4px;line-height:1.6;&quot;&gt; NAME: varchar(128)&lt;br/&gt; SLIB: varchar(4000)&lt;br/&gt; DESCRIPTION: varchar(4000)&lt;br/&gt; SERIALIZER_CLASS: varchar(4000)&lt;br/&gt; DESERIALIZER_CLASS: varchar(4000)&lt;br/&gt; SERDE_TYPE: int(11)&lt;/p&gt;&lt;hr size=&quot;1&quot;/&gt;&lt;p style=&quot;margin:0 0 0 4px;line-height:1.6;&quot;&gt; SERDE_ID: bigint(20)&lt;/p&gt;" style="verticalAlign=top;align=left;overflow=fill;fontSize=14;fontFamily=Helvetica;html=1;rounded=0;shadow=0;comic=0;labelBackgroundColor=none;strokeWidth=1;" parent="1" vertex="1">
          <mxGeometry x="3505" y="-269" width="245" height="193" as="geometry" />
        </mxCell>
        <mxCell id="node31" value="&lt;p style=&quot;margin:0px;margin-top:4px;text-align:center;&quot;&gt;&lt;b&gt;SERDE_PARAMS&lt;/b&gt;&lt;/p&gt;&lt;hr size=&quot;1&quot;/&gt;&lt;p style=&quot;margin:0 0 0 4px;line-height:1.6;&quot;&gt; PARAM_VALUE: mediumtext&lt;/p&gt;&lt;hr size=&quot;1&quot;/&gt;&lt;p style=&quot;margin:0 0 0 4px;line-height:1.6;&quot;&gt; SERDE_ID: bigint(20)&lt;br/&gt; PARAM_KEY: varchar(256)&lt;/p&gt;" style="verticalAlign=top;align=left;overflow=fill;fontSize=14;fontFamily=Helvetica;html=1;rounded=0;shadow=0;comic=0;labelBackgroundColor=none;strokeWidth=1;" parent="1" vertex="1">
          <mxGeometry x="3577" y="45" width="200" height="109" as="geometry" />
        </mxCell>
        <mxCell id="node39" value="&lt;p style=&quot;margin:0px;margin-top:4px;text-align:center;&quot;&gt;&lt;b&gt;SKEWED_COL_NAMES&lt;/b&gt;&lt;/p&gt;&lt;hr size=&quot;1&quot;/&gt;&lt;p style=&quot;margin:0 0 0 4px;line-height:1.6;&quot;&gt; SKEWED_COL_NAME: varchar(256)&lt;/p&gt;&lt;hr size=&quot;1&quot;/&gt;&lt;p style=&quot;margin:0 0 0 4px;line-height:1.6;&quot;&gt; SD_ID: bigint(20)&lt;br/&gt; INTEGER_IDX: int(11)&lt;/p&gt;" style="verticalAlign=top;align=left;overflow=fill;fontSize=14;fontFamily=Helvetica;html=1;rounded=0;shadow=0;comic=0;labelBackgroundColor=none;strokeWidth=1;" parent="1" vertex="1">
          <mxGeometry x="1648" y="394" width="234" height="109" as="geometry" />
        </mxCell>
        <mxCell id="node26" value="&lt;p style=&quot;margin:0px;margin-top:4px;text-align:center;&quot;&gt;&lt;b&gt;SKEWED_COL_VALUE_LOC_MAP&lt;/b&gt;&lt;/p&gt;&lt;hr size=&quot;1&quot;/&gt;&lt;p style=&quot;margin:0 0 0 4px;line-height:1.6;&quot;&gt; LOCATION: varchar(4000)&lt;/p&gt;&lt;hr size=&quot;1&quot;/&gt;&lt;p style=&quot;margin:0 0 0 4px;line-height:1.6;&quot;&gt; SD_ID: bigint(20)&lt;br/&gt; STRING_LIST_ID_KID: bigint(20)&lt;/p&gt;" style="verticalAlign=top;align=left;overflow=fill;fontSize=14;fontFamily=Helvetica;html=1;rounded=0;shadow=0;comic=0;labelBackgroundColor=none;strokeWidth=1;" parent="1" vertex="1">
          <mxGeometry x="364" y="394" width="267" height="109" as="geometry" />
        </mxCell>
        <mxCell id="node72" value="&lt;p style=&quot;margin:0px;margin-top:4px;text-align:center;&quot;&gt;&lt;b&gt;SKEWED_STRING_LIST&lt;/b&gt;&lt;/p&gt;&lt;hr size=&quot;1&quot;/&gt;&lt;p style=&quot;margin:0 0 0 4px;line-height:1.6;&quot;&gt; STRING_LIST_ID: bigint(20)&lt;/p&gt;" style="verticalAlign=top;align=left;overflow=fill;fontSize=14;fontFamily=Helvetica;html=1;rounded=0;shadow=0;comic=0;labelBackgroundColor=none;strokeWidth=1;" parent="1" vertex="1">
          <mxGeometry x="104" y="69" width="197" height="58" as="geometry" />
        </mxCell>
        <mxCell id="node54" value="&lt;p style=&quot;margin:0px;margin-top:4px;text-align:center;&quot;&gt;&lt;b&gt;SKEWED_STRING_LIST_VALUES&lt;/b&gt;&lt;/p&gt;&lt;hr size=&quot;1&quot;/&gt;&lt;p style=&quot;margin:0 0 0 4px;line-height:1.6;&quot;&gt; STRING_LIST_VALUE: varchar(256)&lt;/p&gt;&lt;hr size=&quot;1&quot;/&gt;&lt;p style=&quot;margin:0 0 0 4px;line-height:1.6;&quot;&gt; STRING_LIST_ID: bigint(20)&lt;br/&gt; INTEGER_IDX: int(11)&lt;/p&gt;" style="verticalAlign=top;align=left;overflow=fill;fontSize=14;fontFamily=Helvetica;html=1;rounded=0;shadow=0;comic=0;labelBackgroundColor=none;strokeWidth=1;" parent="1" vertex="1">
          <mxGeometry x="-151" y="394" width="260" height="109" as="geometry" />
        </mxCell>
        <mxCell id="node6" value="&lt;p style=&quot;margin:0px;margin-top:4px;text-align:center;&quot;&gt;&lt;b&gt;SKEWED_VALUES&lt;/b&gt;&lt;/p&gt;&lt;hr size=&quot;1&quot;/&gt;&lt;p style=&quot;margin:0 0 0 4px;line-height:1.6;&quot;&gt; STRING_LIST_ID_EID: bigint(20)&lt;/p&gt;&lt;hr size=&quot;1&quot;/&gt;&lt;p style=&quot;margin:0 0 0 4px;line-height:1.6;&quot;&gt; SD_ID_OID: bigint(20)&lt;br/&gt; INTEGER_IDX: int(11)&lt;/p&gt;" style="verticalAlign=top;align=left;overflow=fill;fontSize=14;fontFamily=Helvetica;html=1;rounded=0;shadow=0;comic=0;labelBackgroundColor=none;strokeWidth=1;" parent="1" vertex="1">
          <mxGeometry x="129" y="394" width="215" height="109" as="geometry" />
        </mxCell>
        <mxCell id="node68" value="&lt;p style=&quot;margin:0px;margin-top:4px;text-align:center;&quot;&gt;&lt;b&gt;SORT_COLS&lt;/b&gt;&lt;/p&gt;&lt;hr size=&quot;1&quot;/&gt;&lt;p style=&quot;margin:0 0 0 4px;line-height:1.6;&quot;&gt; COLUMN_NAME: varchar(767)&lt;br/&gt; ORDER: int(11)&lt;/p&gt;&lt;hr size=&quot;1&quot;/&gt;&lt;p style=&quot;margin:0 0 0 4px;line-height:1.6;&quot;&gt; SD_ID: bigint(20)&lt;br/&gt; INTEGER_IDX: int(11)&lt;/p&gt;" style="verticalAlign=top;align=left;overflow=fill;fontSize=14;fontFamily=Helvetica;html=1;rounded=0;shadow=0;comic=0;labelBackgroundColor=none;strokeWidth=1;" parent="1" vertex="1">
          <mxGeometry x="1420" y="383" width="208" height="134" as="geometry" />
        </mxCell>
        <mxCell id="node19" value="&lt;p style=&quot;margin:0px;margin-top:4px;text-align:center;&quot;&gt;&lt;b&gt;TABLE_PARAMS&lt;/b&gt;&lt;/p&gt;&lt;hr size=&quot;1&quot;/&gt;&lt;p style=&quot;margin:0 0 0 4px;line-height:1.6;&quot;&gt; PARAM_VALUE: mediumtext&lt;/p&gt;&lt;hr size=&quot;1&quot;/&gt;&lt;p style=&quot;margin:0 0 0 4px;line-height:1.6;&quot;&gt; TBL_ID: bigint(20)&lt;br/&gt; PARAM_KEY: varchar(256)&lt;/p&gt;" style="verticalAlign=top;align=left;overflow=fill;fontSize=14;fontFamily=Helvetica;html=1;rounded=0;shadow=0;comic=0;labelBackgroundColor=none;strokeWidth=1;" parent="1" vertex="1">
          <mxGeometry x="2140" y="889" width="200" height="109" as="geometry" />
        </mxCell>
        <mxCell id="node8" value="&lt;p style=&quot;margin:0px;margin-top:4px;text-align:center;&quot;&gt;&lt;b&gt;TAB_COL_STATS&lt;/b&gt;&lt;/p&gt;&lt;hr size=&quot;1&quot;/&gt;&lt;p style=&quot;margin:0 0 0 4px;line-height:1.6;&quot;&gt; CAT_NAME: varchar(256)&lt;br/&gt; DB_NAME: varchar(128)&lt;br/&gt; TABLE_NAME: varchar(256)&lt;br/&gt; COLUMN_NAME: varchar(767)&lt;br/&gt; COLUMN_TYPE: varchar(128)&lt;br/&gt; TBL_ID: bigint(20)&lt;br/&gt; LONG_LOW_VALUE: bigint(20)&lt;br/&gt; LONG_HIGH_VALUE: bigint(20)&lt;br/&gt; DOUBLE_HIGH_VALUE: double(53,4)&lt;br/&gt; DOUBLE_LOW_VALUE: double(53,4)&lt;br/&gt; BIG_DECIMAL_LOW_VALUE: varchar(4000)&lt;br/&gt; BIG_DECIMAL_HIGH_VALUE: varchar(4000)&lt;br/&gt; NUM_NULLS: bigint(20)&lt;br/&gt; NUM_DISTINCTS: bigint(20)&lt;br/&gt; BIT_VECTOR: blob&lt;br/&gt; AVG_COL_LEN: double(53,4)&lt;br/&gt; MAX_COL_LEN: bigint(20)&lt;br/&gt; NUM_TRUES: bigint(20)&lt;br/&gt; NUM_FALSES: bigint(20)&lt;br/&gt; LAST_ANALYZED: bigint(20)&lt;/p&gt;&lt;hr size=&quot;1&quot;/&gt;&lt;p style=&quot;margin:0 0 0 4px;line-height:1.6;&quot;&gt; CS_ID: bigint(20)&lt;/p&gt;" style="verticalAlign=top;align=left;overflow=fill;fontSize=14;fontFamily=Helvetica;html=1;rounded=0;shadow=0;comic=0;labelBackgroundColor=none;strokeWidth=1;" parent="1" vertex="1">
          <mxGeometry x="2600" y="682" width="283" height="515" as="geometry" />
        </mxCell>
        <mxCell id="node2" value="&lt;p style=&quot;margin:0px;margin-top:4px;text-align:center;&quot;&gt;&lt;b&gt;TBLS&lt;/b&gt;&lt;/p&gt;&lt;hr size=&quot;1&quot;/&gt;&lt;p style=&quot;margin:0 0 0 4px;line-height:1.6;&quot;&gt; CREATE_TIME: int(11)&lt;br/&gt; DB_ID: bigint(20)&lt;br/&gt; LAST_ACCESS_TIME: int(11)&lt;br/&gt; OWNER: varchar(767)&lt;br/&gt; OWNER_TYPE: varchar(10)&lt;br/&gt; RETENTION: int(11)&lt;br/&gt; SD_ID: bigint(20)&lt;br/&gt; TBL_NAME: varchar(256)&lt;br/&gt; TBL_TYPE: varchar(128)&lt;br/&gt; VIEW_EXPANDED_TEXT: mediumtext&lt;br/&gt; VIEW_ORIGINAL_TEXT: mediumtext&lt;br/&gt; IS_REWRITE_ENABLED: bit(1)&lt;/p&gt;&lt;hr size=&quot;1&quot;/&gt;&lt;p style=&quot;margin:0 0 0 4px;line-height:1.6;&quot;&gt; TBL_ID: bigint(20)&lt;/p&gt;" style="verticalAlign=top;align=left;overflow=fill;fontSize=14;fontFamily=Helvetica;html=1;rounded=0;shadow=0;comic=0;labelBackgroundColor=none;strokeWidth=1;" parent="1" vertex="1">
          <mxGeometry x="1902" y="279" width="252" height="331" as="geometry" />
        </mxCell>
        <mxCell id="node20" value="&lt;p style=&quot;margin:0px;margin-top:4px;text-align:center;&quot;&gt;&lt;b&gt;TBL_COL_PRIVS&lt;/b&gt;&lt;/p&gt;&lt;hr size=&quot;1&quot;/&gt;&lt;p style=&quot;margin:0 0 0 4px;line-height:1.6;&quot;&gt; COLUMN_NAME: varchar(767)&lt;br/&gt; CREATE_TIME: int(11)&lt;br/&gt; GRANT_OPTION: smallint(6)&lt;br/&gt; GRANTOR: varchar(128)&lt;br/&gt; GRANTOR_TYPE: varchar(128)&lt;br/&gt; PRINCIPAL_NAME: varchar(128)&lt;br/&gt; PRINCIPAL_TYPE: varchar(128)&lt;br/&gt; TBL_COL_PRIV: varchar(128)&lt;br/&gt; TBL_ID: bigint(20)&lt;br/&gt; AUTHORIZER: varchar(128)&lt;/p&gt;&lt;hr size=&quot;1&quot;/&gt;&lt;p style=&quot;margin:0 0 0 4px;line-height:1.6;&quot;&gt; TBL_COLUMN_GRANT_ID: bigint(20)&lt;/p&gt;" style="verticalAlign=top;align=left;overflow=fill;fontSize=14;fontFamily=Helvetica;html=1;rounded=0;shadow=0;comic=0;labelBackgroundColor=none;strokeWidth=1;" parent="1" vertex="1">
          <mxGeometry x="3141" y="797" width="245" height="285" as="geometry" />
        </mxCell>
        <mxCell id="node18" value="&lt;p style=&quot;margin:0px;margin-top:4px;text-align:center;&quot;&gt;&lt;b&gt;TBL_PRIVS&lt;/b&gt;&lt;/p&gt;&lt;hr size=&quot;1&quot;/&gt;&lt;p style=&quot;margin:0 0 0 4px;line-height:1.6;&quot;&gt; CREATE_TIME: int(11)&lt;br/&gt; GRANT_OPTION: smallint(6)&lt;br/&gt; GRANTOR: varchar(128)&lt;br/&gt; GRANTOR_TYPE: varchar(128)&lt;br/&gt; PRINCIPAL_NAME: varchar(128)&lt;br/&gt; PRINCIPAL_TYPE: varchar(128)&lt;br/&gt; TBL_PRIV: varchar(128)&lt;br/&gt; TBL_ID: bigint(20)&lt;br/&gt; AUTHORIZER: varchar(128)&lt;/p&gt;&lt;hr size=&quot;1&quot;/&gt;&lt;p style=&quot;margin:0 0 0 4px;line-height:1.6;&quot;&gt; TBL_GRANT_ID: bigint(20)&lt;/p&gt;" style="verticalAlign=top;align=left;overflow=fill;fontSize=14;fontFamily=Helvetica;html=1;rounded=0;shadow=0;comic=0;labelBackgroundColor=none;strokeWidth=1;" parent="1" vertex="1">
          <mxGeometry x="2903" y="809" width="218" height="262" as="geometry" />
        </mxCell>
        <mxCell id="node59" value="&lt;p style=&quot;margin:0px;margin-top:4px;text-align:center;&quot;&gt;&lt;b&gt;TXNS&lt;/b&gt;&lt;/p&gt;&lt;hr size=&quot;1&quot;/&gt;&lt;p style=&quot;margin:0 0 0 4px;line-height:1.6;&quot;&gt; TXN_STATE: char(1)&lt;br/&gt; TXN_STARTED: bigint(20)&lt;br/&gt; TXN_LAST_HEARTBEAT: bigint(20)&lt;br/&gt; TXN_USER: varchar(128)&lt;br/&gt; TXN_HOST: varchar(128)&lt;br/&gt; TXN_AGENT_INFO: varchar(128)&lt;br/&gt; TXN_META_INFO: varchar(128)&lt;br/&gt; TXN_HEARTBEAT_COUNT: int(11)&lt;br/&gt; TXN_TYPE: int(11)&lt;/p&gt;&lt;hr size=&quot;1&quot;/&gt;&lt;p style=&quot;margin:0 0 0 4px;line-height:1.6;&quot;&gt; TXN_ID: bigint(20)&lt;/p&gt;" style="verticalAlign=top;align=left;overflow=fill;fontSize=14;fontFamily=Helvetica;html=1;rounded=0;shadow=0;comic=0;labelBackgroundColor=none;strokeWidth=1;" parent="1" vertex="1">
          <mxGeometry x="373" y="1830" width="233" height="262" as="geometry" />
        </mxCell>
        <mxCell id="node53" value="&lt;p style=&quot;margin:0px;margin-top:4px;text-align:center;&quot;&gt;&lt;b&gt;TXN_COMPONENTS&lt;/b&gt;&lt;/p&gt;&lt;hr size=&quot;1&quot;/&gt;&lt;p style=&quot;margin:0 0 0 4px;line-height:1.6;&quot;&gt; TC_TXNID: bigint(20)&lt;br/&gt; TC_DATABASE: varchar(128)&lt;br/&gt; TC_TABLE: varchar(128)&lt;br/&gt; TC_PARTITION: varchar(767)&lt;br/&gt; TC_OPERATION_TYPE: char(1)&lt;br/&gt; TC_WRITEID: bigint(20)&lt;/p&gt;" style="verticalAlign=top;align=left;overflow=fill;fontSize=14;fontFamily=Helvetica;html=1;rounded=0;shadow=0;comic=0;labelBackgroundColor=none;strokeWidth=1;" parent="1" vertex="1">
          <mxGeometry x="386" y="2142" width="206" height="169" as="geometry" />
        </mxCell>
        <mxCell id="node66" value="&lt;p style=&quot;margin:0px;margin-top:4px;text-align:center;&quot;&gt;&lt;b&gt;TXN_TO_WRITE_ID&lt;/b&gt;&lt;/p&gt;&lt;hr size=&quot;1&quot;/&gt;&lt;p style=&quot;margin:0 0 0 4px;line-height:1.6;&quot;&gt; T2W_TXNID: bigint(20)&lt;br/&gt; T2W_DATABASE: varchar(128)&lt;br/&gt; T2W_TABLE: varchar(256)&lt;br/&gt; T2W_WRITEID: bigint(20)&lt;/p&gt;" style="verticalAlign=top;align=left;overflow=fill;fontSize=14;fontFamily=Helvetica;html=1;rounded=0;shadow=0;comic=0;labelBackgroundColor=none;strokeWidth=1;" parent="1" vertex="1">
          <mxGeometry x="-151" y="2597" width="207" height="133" as="geometry" />
        </mxCell>
        <mxCell id="node40" value="&lt;p style=&quot;margin:0px;margin-top:4px;text-align:center;&quot;&gt;&lt;b&gt;TYPES&lt;/b&gt;&lt;/p&gt;&lt;hr size=&quot;1&quot;/&gt;&lt;p style=&quot;margin:0 0 0 4px;line-height:1.6;&quot;&gt; TYPE_NAME: varchar(128)&lt;br/&gt; TYPE1: varchar(767)&lt;br/&gt; TYPE2: varchar(767)&lt;/p&gt;&lt;hr size=&quot;1&quot;/&gt;&lt;p style=&quot;margin:0 0 0 4px;line-height:1.6;&quot;&gt; TYPES_ID: bigint(20)&lt;/p&gt;" style="verticalAlign=top;align=left;overflow=fill;fontSize=14;fontFamily=Helvetica;html=1;rounded=0;shadow=0;comic=0;labelBackgroundColor=none;strokeWidth=1;" parent="1" vertex="1">
          <mxGeometry x="2101" y="1830" width="183" height="134" as="geometry" />
        </mxCell>
        <mxCell id="node48" value="&lt;p style=&quot;margin:0px;margin-top:4px;text-align:center;&quot;&gt;&lt;b&gt;TYPE_FIELDS&lt;/b&gt;&lt;/p&gt;&lt;hr size=&quot;1&quot;/&gt;&lt;p style=&quot;margin:0 0 0 4px;line-height:1.6;&quot;&gt; COMMENT: varchar(256)&lt;br/&gt; FIELD_TYPE: varchar(767)&lt;br/&gt; INTEGER_IDX: int(11)&lt;/p&gt;&lt;hr size=&quot;1&quot;/&gt;&lt;p style=&quot;margin:0 0 0 4px;line-height:1.6;&quot;&gt; TYPE_NAME: bigint(20)&lt;br/&gt; FIELD_NAME: varchar(128)&lt;/p&gt;" style="verticalAlign=top;align=left;overflow=fill;fontSize=14;fontFamily=Helvetica;html=1;rounded=0;shadow=0;comic=0;labelBackgroundColor=none;strokeWidth=1;" parent="1" vertex="1">
          <mxGeometry x="2100" y="2004" width="186" height="147" as="geometry" />
        </mxCell>
        <mxCell id="node23" value="&lt;p style=&quot;margin:0px;margin-top:4px;text-align:center;&quot;&gt;&lt;b&gt;VERSION&lt;/b&gt;&lt;/p&gt;&lt;hr size=&quot;1&quot;/&gt;&lt;p style=&quot;margin:0 0 0 4px;line-height:1.6;&quot;&gt; SCHEMA_VERSION: varchar(127)&lt;br/&gt; VERSION_COMMENT: varchar(255)&lt;/p&gt;&lt;hr size=&quot;1&quot;/&gt;&lt;p style=&quot;margin:0 0 0 4px;line-height:1.6;&quot;&gt; VER_ID: bigint(20)&lt;/p&gt;" style="verticalAlign=top;align=left;overflow=fill;fontSize=14;fontFamily=Helvetica;html=1;rounded=0;shadow=0;comic=0;labelBackgroundColor=none;strokeWidth=1;" parent="1" vertex="1">
          <mxGeometry x="398" y="2597" width="236" height="109" as="geometry" />
        </mxCell>
        <mxCell id="node60" value="&lt;p style=&quot;margin:0px;margin-top:4px;text-align:center;&quot;&gt;&lt;b&gt;WM_MAPPING&lt;/b&gt;&lt;/p&gt;&lt;hr size=&quot;1&quot;/&gt;&lt;p style=&quot;margin:0 0 0 4px;line-height:1.6;&quot;&gt; RP_ID: bigint(20)&lt;br/&gt; ENTITY_TYPE: varchar(128)&lt;br/&gt; ENTITY_NAME: varchar(128)&lt;br/&gt; POOL_ID: bigint(20)&lt;br/&gt; ORDERING: int(11)&lt;/p&gt;&lt;hr size=&quot;1&quot;/&gt;&lt;p style=&quot;margin:0 0 0 4px;line-height:1.6;&quot;&gt; MAPPING_ID: bigint(20)&lt;/p&gt;" style="verticalAlign=top;align=left;overflow=fill;fontSize=14;fontFamily=Helvetica;html=1;rounded=0;shadow=0;comic=0;labelBackgroundColor=none;strokeWidth=1;" parent="1" vertex="1">
          <mxGeometry x="121" y="2253" width="196" height="170" as="geometry" />
        </mxCell>
        <mxCell id="node62" value="&lt;p style=&quot;margin:0px;margin-top:4px;text-align:center;&quot;&gt;&lt;b&gt;WM_POOL&lt;/b&gt;&lt;/p&gt;&lt;hr size=&quot;1&quot;/&gt;&lt;p style=&quot;margin:0 0 0 4px;line-height:1.6;&quot;&gt; RP_ID: bigint(20)&lt;br/&gt; PATH: varchar(767)&lt;br/&gt; ALLOC_FRACTION: double&lt;br/&gt; QUERY_PARALLELISM: int(11)&lt;br/&gt; SCHEDULING_POLICY: varchar(767)&lt;/p&gt;&lt;hr size=&quot;1&quot;/&gt;&lt;p style=&quot;margin:0 0 0 4px;line-height:1.6;&quot;&gt; POOL_ID: bigint(20)&lt;/p&gt;" style="verticalAlign=top;align=left;overflow=fill;fontSize=14;fontFamily=Helvetica;html=1;rounded=0;shadow=0;comic=0;labelBackgroundColor=none;strokeWidth=1;" parent="1" vertex="1">
          <mxGeometry x="-15" y="1830" width="239" height="170" as="geometry" />
        </mxCell>
        <mxCell id="node1" value="&lt;p style=&quot;margin:0px;margin-top:4px;text-align:center;&quot;&gt;&lt;b&gt;WM_POOL_TO_TRIGGER&lt;/b&gt;&lt;/p&gt;&lt;hr size=&quot;1&quot;/&gt;&lt;p style=&quot;margin:0 0 0 4px;line-height:1.6;&quot;&gt; POOL_ID: bigint(20)&lt;br/&gt; TRIGGER_ID: bigint(20)&lt;/p&gt;" style="verticalAlign=top;align=left;overflow=fill;fontSize=14;fontFamily=Helvetica;html=1;rounded=0;shadow=0;comic=0;labelBackgroundColor=none;strokeWidth=1;" parent="1" vertex="1">
          <mxGeometry x="45" y="2475" width="213" height="83" as="geometry" />
        </mxCell>
        <mxCell id="node55" value="&lt;p style=&quot;margin:0px;margin-top:4px;text-align:center;&quot;&gt;&lt;b&gt;WM_RESOURCEPLAN&lt;/b&gt;&lt;/p&gt;&lt;hr size=&quot;1&quot;/&gt;&lt;p style=&quot;margin:0 0 0 4px;line-height:1.6;&quot;&gt; NAME: varchar(128)&lt;br/&gt; QUERY_PARALLELISM: int(11)&lt;br/&gt; STATUS: varchar(20)&lt;br/&gt; DEFAULT_POOL_ID: bigint(20)&lt;/p&gt;&lt;hr size=&quot;1&quot;/&gt;&lt;p style=&quot;margin:0 0 0 4px;line-height:1.6;&quot;&gt; RP_ID: bigint(20)&lt;/p&gt;" style="verticalAlign=top;align=left;overflow=fill;fontSize=14;fontFamily=Helvetica;html=1;rounded=0;shadow=0;comic=0;labelBackgroundColor=none;strokeWidth=1;" parent="1" vertex="1">
          <mxGeometry x="-38" y="2052" width="207" height="147" as="geometry" />
        </mxCell>
        <mxCell id="node25" value="&lt;p style=&quot;margin:0px;margin-top:4px;text-align:center;&quot;&gt;&lt;b&gt;WM_TRIGGER&lt;/b&gt;&lt;/p&gt;&lt;hr size=&quot;1&quot;/&gt;&lt;p style=&quot;margin:0 0 0 4px;line-height:1.6;&quot;&gt; RP_ID: bigint(20)&lt;br/&gt; NAME: varchar(128)&lt;br/&gt; TRIGGER_EXPRESSION: varchar(1024)&lt;br/&gt; ACTION_EXPRESSION: varchar(1024)&lt;br/&gt; IS_IN_UNMANAGED: bit(1)&lt;/p&gt;&lt;hr size=&quot;1&quot;/&gt;&lt;p style=&quot;margin:0 0 0 4px;line-height:1.6;&quot;&gt; TRIGGER_ID: bigint(20)&lt;/p&gt;" style="verticalAlign=top;align=left;overflow=fill;fontSize=14;fontFamily=Helvetica;html=1;rounded=0;shadow=0;comic=0;labelBackgroundColor=none;strokeWidth=1;" parent="1" vertex="1">
          <mxGeometry x="-151" y="2253" width="252" height="170" as="geometry" />
        </mxCell>
        <mxCell id="node9" value="&lt;p style=&quot;margin:0px;margin-top:4px;text-align:center;&quot;&gt;&lt;b&gt;WRITE_SET&lt;/b&gt;&lt;/p&gt;&lt;hr size=&quot;1&quot;/&gt;&lt;p style=&quot;margin:0 0 0 4px;line-height:1.6;&quot;&gt; WS_DATABASE: varchar(128)&lt;br/&gt; WS_TABLE: varchar(128)&lt;br/&gt; WS_PARTITION: varchar(767)&lt;br/&gt; WS_TXNID: bigint(20)&lt;br/&gt; WS_COMMIT_ID: bigint(20)&lt;br/&gt; WS_OPERATION_TYPE: char(1)&lt;/p&gt;" style="verticalAlign=top;align=left;overflow=fill;fontSize=14;fontFamily=Helvetica;html=1;rounded=0;shadow=0;comic=0;labelBackgroundColor=none;strokeWidth=1;" parent="1" vertex="1">
          <mxGeometry x="3710" y="1830" width="211" height="169" as="geometry" />
        </mxCell>
        <mxCell id="edge44" value="" style="html=1;rounded=1;edgeStyle=orthogonalEdgeStyle;dashed=0;startArrow=none;endArrow=block;endSize=12;strokeColor=#595959;exitX=0.500;exitY=0.000;exitDx=0;exitDy=0;entryX=0.750;entryY=1.000;entryDx=0;entryDy=0;" parent="1" source="node51" target="node29" edge="1">
          <mxGeometry width="50" height="50" relative="1" as="geometry">
            <Array as="points">
              <mxPoint x="767" y="257" />
              <mxPoint x="1388" y="257" />
              <mxPoint x="1388" y="247" />
              <mxPoint x="1022" y="247" />
            </Array>
          </mxGeometry>
        </mxCell>
        <mxCell id="label266" value="SD_ID" style="edgeLabel;resizable=0;html=1;align=left;verticalAlign=top;strokeColor=default;" parent="edge44" vertex="1" connectable="0">
          <mxGeometry x="1265" y="237" as="geometry" />
        </mxCell>
        <mxCell id="edge14" value="" style="html=1;rounded=1;edgeStyle=orthogonalEdgeStyle;dashed=0;startArrow=none;endArrow=block;endSize=12;strokeColor=#595959;exitX=0.500;exitY=0.000;exitDx=0;exitDy=0;entryX=0.500;entryY=1.001;entryDx=0;entryDy=0;" parent="1" source="node71" target="node43" edge="1">
          <mxGeometry width="50" height="50" relative="1" as="geometry">
            <Array as="points">
              <mxPoint x="-20" y="-45" />
              <mxPoint x="895" y="-45" />
            </Array>
          </mxGeometry>
        </mxCell>
        <mxCell id="label86" value="CD_ID" style="edgeLabel;resizable=0;html=1;align=left;verticalAlign=top;strokeColor=default;" parent="edge14" vertex="1" connectable="0">
          <mxGeometry x="417" y="-65" as="geometry" />
        </mxCell>
        <mxCell id="edge46" value="" style="html=1;rounded=1;edgeStyle=orthogonalEdgeStyle;dashed=0;startArrow=none;endArrow=block;endSize=12;strokeColor=#595959;exitX=0.500;exitY=0.000;exitDx=0;exitDy=0;entryX=0.500;entryY=1.000;entryDx=0;entryDy=0;" parent="1" source="node12" target="node57" edge="1">
          <mxGeometry width="50" height="50" relative="1" as="geometry">
            <Array as="points">
              <mxPoint x="4624" y="247" />
              <mxPoint x="4183" y="247" />
            </Array>
          </mxGeometry>
        </mxCell>
        <mxCell id="label278" value="DB_ID" style="edgeLabel;resizable=0;html=1;align=left;verticalAlign=top;strokeColor=default;" parent="edge46" vertex="1" connectable="0">
          <mxGeometry x="4428" y="227" as="geometry" />
        </mxCell>
        <mxCell id="edge4" value="" style="html=1;rounded=1;edgeStyle=orthogonalEdgeStyle;dashed=0;startArrow=none;endArrow=block;endSize=12;strokeColor=#595959;exitX=0.500;exitY=0.000;exitDx=0;exitDy=0;entryX=0.500;entryY=1.000;entryDx=0;entryDy=0;" parent="1" source="node57" target="node73" edge="1">
          <mxGeometry width="50" height="50" relative="1" as="geometry">
            <Array as="points" />
          </mxGeometry>
        </mxCell>
        <mxCell id="label26" value="CTLG_NAME:NAME" style="edgeLabel;resizable=0;html=1;align=left;verticalAlign=top;strokeColor=default;" parent="edge4" vertex="1" connectable="0">
          <mxGeometry x="4071" y="-66" as="geometry" />
        </mxCell>
        <mxCell id="edge22" value="" style="html=1;rounded=1;edgeStyle=orthogonalEdgeStyle;dashed=0;startArrow=none;endArrow=block;endSize=12;strokeColor=#595959;exitX=0.500;exitY=0.000;exitDx=0;exitDy=0;entryX=0.500;entryY=1.000;entryDx=0;entryDy=0;" parent="1" source="node58" target="node57" edge="1">
          <mxGeometry width="50" height="50" relative="1" as="geometry">
            <Array as="points">
              <mxPoint x="4171" y="247" />
              <mxPoint x="4183" y="247" />
            </Array>
          </mxGeometry>
        </mxCell>
        <mxCell id="label134" value="DB_ID" style="edgeLabel;resizable=0;html=1;align=left;verticalAlign=top;strokeColor=default;" parent="edge22" vertex="1" connectable="0">
          <mxGeometry x="4131" y="270" as="geometry" />
        </mxCell>
        <mxCell id="edge27" value="" style="html=1;rounded=1;edgeStyle=orthogonalEdgeStyle;dashed=0;startArrow=none;endArrow=block;endSize=12;strokeColor=#595959;exitX=0.500;exitY=0.000;exitDx=0;exitDy=0;entryX=0.500;entryY=1.000;entryDx=0;entryDy=0;" parent="1" source="node38" target="node57" edge="1">
          <mxGeometry width="50" height="50" relative="1" as="geometry">
            <Array as="points">
              <mxPoint x="4400" y="247" />
              <mxPoint x="4183" y="247" />
            </Array>
          </mxGeometry>
        </mxCell>
        <mxCell id="label164" value="DB_ID" style="edgeLabel;resizable=0;html=1;align=left;verticalAlign=top;strokeColor=default;" parent="edge27" vertex="1" connectable="0">
          <mxGeometry x="4272" y="227" as="geometry" />
        </mxCell>
        <mxCell id="edge39" value="" style="html=1;rounded=1;edgeStyle=orthogonalEdgeStyle;dashed=0;startArrow=none;endArrow=block;endSize=12;strokeColor=#595959;exitX=0.500;exitY=0.000;exitDx=0;exitDy=0;entryX=0.500;entryY=1.000;entryDx=0;entryDy=0;" parent="1" source="node37" target="node38" edge="1">
          <mxGeometry width="50" height="50" relative="1" as="geometry">
            <Array as="points" />
          </mxGeometry>
        </mxCell>
        <mxCell id="label236" value="FUNC_ID" style="edgeLabel;resizable=0;html=1;align=left;verticalAlign=top;strokeColor=default;" parent="edge39" vertex="1" connectable="0">
          <mxGeometry x="4343" y="705" as="geometry" />
        </mxCell>
        <mxCell id="edge40" value="" style="html=1;rounded=1;edgeStyle=orthogonalEdgeStyle;dashed=0;startArrow=none;endArrow=block;endSize=12;strokeColor=#595959;exitX=0.167;exitY=0.000;exitDx=0;exitDy=0;entryX=0.750;entryY=1.000;entryDx=0;entryDy=0;" parent="1" source="node65" target="node29" edge="1">
          <mxGeometry width="50" height="50" relative="1" as="geometry">
            <Array as="points">
              <mxPoint x="1416" y="661" />
              <mxPoint x="642" y="661" />
              <mxPoint x="642" y="257" />
              <mxPoint x="1388" y="257" />
              <mxPoint x="1388" y="247" />
              <mxPoint x="1022" y="247" />
            </Array>
          </mxGeometry>
        </mxCell>
        <mxCell id="label242" value="SD_ID" style="edgeLabel;resizable=0;html=1;align=left;verticalAlign=top;strokeColor=default;" parent="edge40" vertex="1" connectable="0">
          <mxGeometry x="942" y="237" as="geometry" />
        </mxCell>
        <mxCell id="edge7" value="" style="html=1;rounded=1;edgeStyle=orthogonalEdgeStyle;dashed=0;startArrow=none;endArrow=block;endSize=12;strokeColor=#595959;exitX=0.500;exitY=0.000;exitDx=0;exitDy=0;entryX=0.167;entryY=1.000;entryDx=0;entryDy=0;" parent="1" source="node65" target="node2" edge="1">
          <mxGeometry width="50" height="50" relative="1" as="geometry">
            <Array as="points">
              <mxPoint x="1504" y="641" />
              <mxPoint x="1944" y="641" />
            </Array>
          </mxGeometry>
        </mxCell>
        <mxCell id="label44" value="INDEX_TBL_ID:TBL_ID" style="edgeLabel;resizable=0;html=1;align=left;verticalAlign=top;strokeColor=default;" parent="edge7" vertex="1" connectable="0">
          <mxGeometry x="1772" y="616" as="geometry" />
        </mxCell>
        <mxCell id="edge17" value="" style="html=1;rounded=1;edgeStyle=orthogonalEdgeStyle;dashed=0;startArrow=none;endArrow=block;endSize=12;strokeColor=#595959;exitX=0.833;exitY=0.000;exitDx=0;exitDy=0;entryX=0.500;entryY=1.000;entryDx=0;entryDy=0;" parent="1" source="node65" target="node2" edge="1">
          <mxGeometry width="50" height="50" relative="1" as="geometry">
            <Array as="points">
              <mxPoint x="1593" y="651" />
              <mxPoint x="2028" y="651" />
            </Array>
          </mxGeometry>
        </mxCell>
        <mxCell id="label104" value="ORIG_TBL_ID:TBL_ID" style="edgeLabel;resizable=0;html=1;align=left;verticalAlign=top;strokeColor=default;" parent="edge17" vertex="1" connectable="0">
          <mxGeometry x="1747" y="591" as="geometry" />
        </mxCell>
        <mxCell id="edge50" value="" style="html=1;rounded=1;edgeStyle=orthogonalEdgeStyle;dashed=0;startArrow=none;endArrow=block;endSize=12;strokeColor=#595959;exitX=0.500;exitY=0.000;exitDx=0;exitDy=0;entryX=0.500;entryY=1.000;entryDx=0;entryDy=0;" parent="1" source="node10" target="node65" edge="1">
          <mxGeometry width="50" height="50" relative="1" as="geometry">
            <Array as="points" />
          </mxGeometry>
        </mxCell>
        <mxCell id="label302" value="INDEX_ID" style="edgeLabel;resizable=0;html=1;align=left;verticalAlign=top;strokeColor=default;" parent="edge50" vertex="1" connectable="0">
          <mxGeometry x="1445" y="1252" as="geometry" />
        </mxCell>
        <mxCell id="edge23" value="" style="html=1;rounded=1;edgeStyle=orthogonalEdgeStyle;dashed=0;startArrow=none;endArrow=block;endSize=12;strokeColor=#595959;exitX=0.500;exitY=0.000;exitDx=0;exitDy=0;entryX=0.500;entryY=1.000;entryDx=0;entryDy=0;" parent="1" source="node13" target="node57" edge="1">
          <mxGeometry width="50" height="50" relative="1" as="geometry">
            <Array as="points">
              <mxPoint x="3936" y="247" />
              <mxPoint x="4183" y="247" />
            </Array>
          </mxGeometry>
        </mxCell>
        <mxCell id="label140" value="DB_ID" style="edgeLabel;resizable=0;html=1;align=left;verticalAlign=top;strokeColor=default;" parent="edge23" vertex="1" connectable="0">
          <mxGeometry x="4040" y="227" as="geometry" />
        </mxCell>
        <mxCell id="edge48" value="" style="html=1;rounded=1;edgeStyle=orthogonalEdgeStyle;dashed=0;startArrow=none;endArrow=block;endSize=12;strokeColor=#595959;exitX=0.250;exitY=0.000;exitDx=0;exitDy=0;entryX=0.500;entryY=1.000;entryDx=0;entryDy=0;" parent="1" source="node42" target="node4" edge="1">
          <mxGeometry width="50" height="50" relative="1" as="geometry">
            <Array as="points">
              <mxPoint x="1726" y="631" />
              <mxPoint x="1041" y="631" />
            </Array>
          </mxGeometry>
        </mxCell>
        <mxCell id="label290" value="MV_CREATION_METADATA_ID" style="edgeLabel;resizable=0;html=1;align=left;verticalAlign=top;strokeColor=default;" parent="edge48" vertex="1" connectable="0">
          <mxGeometry x="1296" y="611" as="geometry" />
        </mxCell>
        <mxCell id="edge51" value="" style="html=1;rounded=1;edgeStyle=orthogonalEdgeStyle;dashed=0;startArrow=none;endArrow=block;endSize=12;strokeColor=#595959;exitX=0.750;exitY=0.000;exitDx=0;exitDy=0;entryX=0.833;entryY=1.000;entryDx=0;entryDy=0;" parent="1" source="node42" target="node2" edge="1">
          <mxGeometry width="50" height="50" relative="1" as="geometry">
            <Array as="points">
              <mxPoint x="1865" y="661" />
              <mxPoint x="2742" y="661" />
              <mxPoint x="2742" y="651" />
              <mxPoint x="2112" y="651" />
            </Array>
          </mxGeometry>
        </mxCell>
        <mxCell id="label308" value="TBL_ID" style="edgeLabel;resizable=0;html=1;align=left;verticalAlign=top;strokeColor=default;" parent="edge51" vertex="1" connectable="0">
          <mxGeometry x="2573" y="641" as="geometry" />
        </mxCell>
        <mxCell id="edge9" value="" style="html=1;rounded=1;edgeStyle=orthogonalEdgeStyle;dashed=0;startArrow=none;endArrow=block;endSize=12;strokeColor=#595959;exitX=0.750;exitY=0.000;exitDx=0;exitDy=0;entryX=0.750;entryY=1.000;entryDx=0;entryDy=0;" parent="1" source="node52" target="node29" edge="1">
          <mxGeometry width="50" height="50" relative="1" as="geometry">
            <Array as="points">
              <mxPoint x="3550" y="661" />
              <mxPoint x="3490" y="661" />
              <mxPoint x="3490" y="257" />
              <mxPoint x="1388" y="257" />
              <mxPoint x="1388" y="247" />
              <mxPoint x="1022" y="247" />
            </Array>
          </mxGeometry>
        </mxCell>
        <mxCell id="label56" value="SD_ID" style="edgeLabel;resizable=0;html=1;align=left;verticalAlign=top;strokeColor=default;" parent="edge9" vertex="1" connectable="0">
          <mxGeometry x="2419" y="237" as="geometry" />
        </mxCell>
        <mxCell id="edge0" value="" style="html=1;rounded=1;edgeStyle=orthogonalEdgeStyle;dashed=0;startArrow=none;endArrow=block;endSize=12;strokeColor=#595959;exitX=0.250;exitY=0.000;exitDx=0;exitDy=0;entryX=0.833;entryY=1.000;entryDx=0;entryDy=0;" parent="1" source="node52" target="node2" edge="1">
          <mxGeometry width="50" height="50" relative="1" as="geometry">
            <Array as="points">
              <mxPoint x="3454" y="661" />
              <mxPoint x="2742" y="661" />
              <mxPoint x="2742" y="651" />
              <mxPoint x="2112" y="651" />
            </Array>
          </mxGeometry>
        </mxCell>
        <mxCell id="label2" value="TBL_ID" style="edgeLabel;resizable=0;html=1;align=left;verticalAlign=top;strokeColor=default;" parent="edge0" vertex="1" connectable="0">
          <mxGeometry x="2719" y="641" as="geometry" />
        </mxCell>
        <mxCell id="edge42" value="" style="html=1;rounded=1;edgeStyle=orthogonalEdgeStyle;dashed=0;startArrow=none;endArrow=block;endSize=12;strokeColor=#595959;exitX=0.500;exitY=0.000;exitDx=0;exitDy=0;entryX=0.833;entryY=1.000;entryDx=0;entryDy=0;" parent="1" source="node64" target="node2" edge="1">
          <mxGeometry width="50" height="50" relative="1" as="geometry">
            <Array as="points">
              <mxPoint x="2470" y="661" />
              <mxPoint x="2742" y="661" />
              <mxPoint x="2742" y="651" />
              <mxPoint x="2112" y="651" />
            </Array>
          </mxGeometry>
        </mxCell>
        <mxCell id="label254" value="TBL_ID" style="edgeLabel;resizable=0;html=1;align=left;verticalAlign=top;strokeColor=default;" parent="edge42" vertex="1" connectable="0">
          <mxGeometry x="2629" y="641" as="geometry" />
        </mxCell>
        <mxCell id="edge31" value="" style="html=1;rounded=1;edgeStyle=orthogonalEdgeStyle;dashed=0;startArrow=none;endArrow=block;endSize=12;strokeColor=#595959;exitX=0.500;exitY=0.000;exitDx=0;exitDy=0;entryX=0.500;entryY=1.000;entryDx=0;entryDy=0;" parent="1" source="node69" target="node52" edge="1">
          <mxGeometry width="50" height="50" relative="1" as="geometry">
            <Array as="points" />
          </mxGeometry>
        </mxCell>
        <mxCell id="label188" value="PART_ID" style="edgeLabel;resizable=0;html=1;align=left;verticalAlign=top;strokeColor=default;" parent="edge31" vertex="1" connectable="0">
          <mxGeometry x="3448" y="1235" as="geometry" />
        </mxCell>
        <mxCell id="edge25" value="" style="html=1;rounded=1;edgeStyle=orthogonalEdgeStyle;dashed=0;startArrow=none;endArrow=block;endSize=12;strokeColor=#595959;exitX=0.500;exitY=0.000;exitDx=0;exitDy=0;entryX=0.500;entryY=1.000;entryDx=0;entryDy=0;" parent="1" source="node21" target="node52" edge="1">
          <mxGeometry width="50" height="50" relative="1" as="geometry">
            <Array as="points">
              <mxPoint x="3726" y="1222" />
              <mxPoint x="3502" y="1222" />
            </Array>
          </mxGeometry>
        </mxCell>
        <mxCell id="label152" value="PART_ID" style="edgeLabel;resizable=0;html=1;align=left;verticalAlign=top;strokeColor=default;" parent="edge25" vertex="1" connectable="0">
          <mxGeometry x="3587" y="1202" as="geometry" />
        </mxCell>
        <mxCell id="edge1" value="" style="html=1;rounded=1;edgeStyle=orthogonalEdgeStyle;dashed=0;startArrow=none;endArrow=block;endSize=12;strokeColor=#595959;exitX=0.500;exitY=0.000;exitDx=0;exitDy=0;entryX=0.500;entryY=1.000;entryDx=0;entryDy=0;" parent="1" source="node46" target="node52" edge="1">
          <mxGeometry width="50" height="50" relative="1" as="geometry">
            <Array as="points">
              <mxPoint x="2842" y="1222" />
              <mxPoint x="3502" y="1222" />
            </Array>
          </mxGeometry>
        </mxCell>
        <mxCell id="label8" value="PART_ID" style="edgeLabel;resizable=0;html=1;align=left;verticalAlign=top;strokeColor=default;" parent="edge1" vertex="1" connectable="0">
          <mxGeometry x="3211" y="1202" as="geometry" />
        </mxCell>
        <mxCell id="edge18" value="" style="html=1;rounded=1;edgeStyle=orthogonalEdgeStyle;dashed=0;startArrow=none;endArrow=block;endSize=12;strokeColor=#595959;exitX=0.500;exitY=0.000;exitDx=0;exitDy=0;entryX=0.500;entryY=1.000;entryDx=0;entryDy=0;" parent="1" source="node49" target="node52" edge="1">
          <mxGeometry width="50" height="50" relative="1" as="geometry">
            <Array as="points">
              <mxPoint x="2553" y="1222" />
              <mxPoint x="3502" y="1222" />
            </Array>
          </mxGeometry>
        </mxCell>
        <mxCell id="label110" value="PART_ID" style="edgeLabel;resizable=0;html=1;align=left;verticalAlign=top;strokeColor=default;" parent="edge18" vertex="1" connectable="0">
          <mxGeometry x="3095" y="1202" as="geometry" />
        </mxCell>
        <mxCell id="edge43" value="" style="html=1;rounded=1;edgeStyle=orthogonalEdgeStyle;dashed=0;startArrow=none;endArrow=block;endSize=12;strokeColor=#595959;exitX=0.500;exitY=0.000;exitDx=0;exitDy=0;entryX=0.500;entryY=1.000;entryDx=0;entryDy=0;" parent="1" source="node33" target="node52" edge="1">
          <mxGeometry width="50" height="50" relative="1" as="geometry">
            <Array as="points">
              <mxPoint x="3959" y="1222" />
              <mxPoint x="3502" y="1222" />
            </Array>
          </mxGeometry>
        </mxCell>
        <mxCell id="label260" value="PART_ID" style="edgeLabel;resizable=0;html=1;align=left;verticalAlign=top;strokeColor=default;" parent="edge43" vertex="1" connectable="0">
          <mxGeometry x="3761" y="1202" as="geometry" />
        </mxCell>
        <mxCell id="edge28" value="" style="html=1;rounded=1;edgeStyle=orthogonalEdgeStyle;dashed=0;startArrow=none;endArrow=block;endSize=12;strokeColor=#595959;exitX=0.500;exitY=0.000;exitDx=0;exitDy=0;entryX=0.500;entryY=1.000;entryDx=0;entryDy=0;" parent="1" source="node47" target="node0" edge="1">
          <mxGeometry width="50" height="50" relative="1" as="geometry">
            <Array as="points" />
          </mxGeometry>
        </mxCell>
        <mxCell id="label170" value="ROLE_ID" style="edgeLabel;resizable=0;html=1;align=left;verticalAlign=top;strokeColor=default;" parent="edge28" vertex="1" connectable="0">
          <mxGeometry x="985" y="1969" as="geometry" />
        </mxCell>
        <mxCell id="edge15" value="" style="html=1;rounded=1;edgeStyle=orthogonalEdgeStyle;dashed=0;startArrow=none;endArrow=block;endSize=12;strokeColor=#595959;exitX=0.167;exitY=0.000;exitDx=0;exitDy=0;entryX=0.500;entryY=1.001;entryDx=0;entryDy=0;" parent="1" source="node34" target="node43" edge="1">
          <mxGeometry width="50" height="50" relative="1" as="geometry">
            <Array as="points">
              <mxPoint x="3689" y="661" />
              <mxPoint x="3567" y="661" />
              <mxPoint x="3567" y="-45" />
              <mxPoint x="895" y="-45" />
            </Array>
          </mxGeometry>
        </mxCell>
        <mxCell id="label92" value="CD_ID" style="edgeLabel;resizable=0;html=1;align=left;verticalAlign=top;strokeColor=default;" parent="edge15" vertex="1" connectable="0">
          <mxGeometry x="3526" y="298" as="geometry" />
        </mxCell>
        <mxCell id="edge10" value="" style="html=1;rounded=1;edgeStyle=orthogonalEdgeStyle;dashed=0;startArrow=none;endArrow=block;endSize=12;strokeColor=#595959;exitX=0.833;exitY=0.000;exitDx=0;exitDy=0;entryX=0.500;entryY=1.000;entryDx=0;entryDy=0;" parent="1" source="node34" target="node13" edge="1">
          <mxGeometry width="50" height="50" relative="1" as="geometry">
            <Array as="points">
              <mxPoint x="3866" y="661" />
              <mxPoint x="3936" y="661" />
            </Array>
          </mxGeometry>
        </mxCell>
        <mxCell id="label62" value="SCHEMA_ID" style="edgeLabel;resizable=0;html=1;align=left;verticalAlign=top;strokeColor=default;" parent="edge10" vertex="1" connectable="0">
          <mxGeometry x="3863" y="627" as="geometry" />
        </mxCell>
        <mxCell id="edge47" value="" style="html=1;rounded=1;edgeStyle=orthogonalEdgeStyle;dashed=0;startArrow=none;endArrow=block;endSize=12;strokeColor=#595959;exitX=0.500;exitY=0.000;exitDx=0;exitDy=0;entryX=0.500;entryY=1.000;entryDx=0;entryDy=0;" parent="1" source="node34" target="node16" edge="1">
          <mxGeometry width="50" height="50" relative="1" as="geometry">
            <Array as="points">
              <mxPoint x="3777" y="661" />
              <mxPoint x="3815" y="661" />
              <mxPoint x="3815" y="-55" />
              <mxPoint x="3627" y="-55" />
            </Array>
          </mxGeometry>
        </mxCell>
        <mxCell id="label284" value="SERDE_ID" style="edgeLabel;resizable=0;html=1;align=left;verticalAlign=top;strokeColor=default;" parent="edge47" vertex="1" connectable="0">
          <mxGeometry x="3750" y="293" as="geometry" />
        </mxCell>
        <mxCell id="edge19" value="" style="html=1;rounded=1;edgeStyle=orthogonalEdgeStyle;dashed=0;startArrow=none;endArrow=block;endSize=12;strokeColor=#595959;exitX=0.250;exitY=0.000;exitDx=0;exitDy=0;entryX=0.500;entryY=1.001;entryDx=0;entryDy=0;" parent="1" source="node29" target="node43" edge="1">
          <mxGeometry width="50" height="50" relative="1" as="geometry">
            <Array as="points" />
          </mxGeometry>
        </mxCell>
        <mxCell id="label116" value="CD_ID" style="edgeLabel;resizable=0;html=1;align=left;verticalAlign=top;strokeColor=default;" parent="edge19" vertex="1" connectable="0">
          <mxGeometry x="854" y="-95" as="geometry" />
        </mxCell>
        <mxCell id="edge35" value="" style="html=1;rounded=1;edgeStyle=orthogonalEdgeStyle;dashed=0;startArrow=none;endArrow=block;endSize=12;strokeColor=#595959;exitX=0.750;exitY=0.000;exitDx=0;exitDy=0;entryX=0.500;entryY=1.000;entryDx=0;entryDy=0;" parent="1" source="node29" target="node16" edge="1">
          <mxGeometry width="50" height="50" relative="1" as="geometry">
            <Array as="points">
              <mxPoint x="1022" y="-55" />
              <mxPoint x="3627" y="-55" />
            </Array>
          </mxGeometry>
        </mxCell>
        <mxCell id="label212" value="SERDE_ID" style="edgeLabel;resizable=0;html=1;align=left;verticalAlign=top;strokeColor=default;" parent="edge35" vertex="1" connectable="0">
          <mxGeometry x="2292" y="-75" as="geometry" />
        </mxCell>
        <mxCell id="edge24" value="" style="html=1;rounded=1;edgeStyle=orthogonalEdgeStyle;dashed=0;startArrow=none;endArrow=block;endSize=12;strokeColor=#595959;exitX=0.500;exitY=0.000;exitDx=0;exitDy=0;entryX=0.750;entryY=1.000;entryDx=0;entryDy=0;" parent="1" source="node22" target="node29" edge="1">
          <mxGeometry width="50" height="50" relative="1" as="geometry">
            <Array as="points">
              <mxPoint x="1300" y="257" />
              <mxPoint x="1388" y="257" />
              <mxPoint x="1388" y="247" />
              <mxPoint x="1022" y="247" />
            </Array>
          </mxGeometry>
        </mxCell>
        <mxCell id="label146" value="SD_ID" style="edgeLabel;resizable=0;html=1;align=left;verticalAlign=top;strokeColor=default;" parent="edge24" vertex="1" connectable="0">
          <mxGeometry x="1260" y="270" as="geometry" />
        </mxCell>
        <mxCell id="edge2" value="" style="html=1;rounded=1;edgeStyle=orthogonalEdgeStyle;dashed=0;startArrow=none;endArrow=block;endSize=12;strokeColor=#595959;exitX=0.500;exitY=0.000;exitDx=0;exitDy=0;entryX=0.500;entryY=1.000;entryDx=0;entryDy=0;" parent="1" source="node31" target="node16" edge="1">
          <mxGeometry width="50" height="50" relative="1" as="geometry">
            <Array as="points">
              <mxPoint x="3677" y="-55" />
              <mxPoint x="3627" y="-55" />
            </Array>
          </mxGeometry>
        </mxCell>
        <mxCell id="label14" value="SERDE_ID" style="edgeLabel;resizable=0;html=1;align=left;verticalAlign=top;strokeColor=default;" parent="edge2" vertex="1" connectable="0">
          <mxGeometry x="3612" y="-40" as="geometry" />
        </mxCell>
        <mxCell id="edge20" value="" style="html=1;rounded=1;edgeStyle=orthogonalEdgeStyle;dashed=0;startArrow=none;endArrow=block;endSize=12;strokeColor=#595959;exitX=0.500;exitY=0.000;exitDx=0;exitDy=0;entryX=0.750;entryY=1.000;entryDx=0;entryDy=0;" parent="1" source="node39" target="node29" edge="1">
          <mxGeometry width="50" height="50" relative="1" as="geometry">
            <Array as="points">
              <mxPoint x="1765" y="257" />
              <mxPoint x="1388" y="257" />
              <mxPoint x="1388" y="247" />
              <mxPoint x="1022" y="247" />
            </Array>
          </mxGeometry>
        </mxCell>
        <mxCell id="label122" value="SD_ID" style="edgeLabel;resizable=0;html=1;align=left;verticalAlign=top;strokeColor=default;" parent="edge20" vertex="1" connectable="0">
          <mxGeometry x="1368" y="197" as="geometry" />
        </mxCell>
        <mxCell id="edge37" value="" style="html=1;rounded=1;edgeStyle=orthogonalEdgeStyle;dashed=0;startArrow=none;endArrow=block;endSize=12;strokeColor=#595959;exitX=0.750;exitY=0.000;exitDx=0;exitDy=0;entryX=0.750;entryY=1.000;entryDx=0;entryDy=0;" parent="1" source="node26" target="node29" edge="1">
          <mxGeometry width="50" height="50" relative="1" as="geometry">
            <Array as="points">
              <mxPoint x="564" y="257" />
              <mxPoint x="1388" y="257" />
              <mxPoint x="1388" y="247" />
              <mxPoint x="1022" y="247" />
            </Array>
          </mxGeometry>
        </mxCell>
        <mxCell id="label224" value="SD_ID" style="edgeLabel;resizable=0;html=1;align=left;verticalAlign=top;strokeColor=default;" parent="edge37" vertex="1" connectable="0">
          <mxGeometry x="1348" y="247" as="geometry" />
        </mxCell>
        <mxCell id="edge29" value="" style="html=1;rounded=1;edgeStyle=orthogonalEdgeStyle;dashed=0;startArrow=none;endArrow=block;endSize=12;strokeColor=#595959;exitX=0.250;exitY=0.000;exitDx=0;exitDy=0;entryX=0.833;entryY=1.001;entryDx=0;entryDy=0;" parent="1" source="node26" target="node72" edge="1">
          <mxGeometry width="50" height="50" relative="1" as="geometry">
            <Array as="points">
              <mxPoint x="431" y="237" />
              <mxPoint x="268" y="237" />
            </Array>
          </mxGeometry>
        </mxCell>
        <mxCell id="label176" value="STRING_LIST_ID_KID:STRING_LIST_ID" style="edgeLabel;resizable=0;html=1;align=left;verticalAlign=top;strokeColor=default;" parent="edge29" vertex="1" connectable="0">
          <mxGeometry x="205" y="227" as="geometry" />
        </mxCell>
        <mxCell id="edge11" value="" style="html=1;rounded=1;edgeStyle=orthogonalEdgeStyle;dashed=0;startArrow=none;endArrow=block;endSize=12;strokeColor=#595959;exitX=0.500;exitY=0.000;exitDx=0;exitDy=0;entryX=0.167;entryY=1.001;entryDx=0;entryDy=0;" parent="1" source="node54" target="node72" edge="1">
          <mxGeometry width="50" height="50" relative="1" as="geometry">
            <Array as="points">
              <mxPoint x="-21" y="257" />
              <mxPoint x="137" y="257" />
            </Array>
          </mxGeometry>
        </mxCell>
        <mxCell id="label68" value="STRING_LIST_ID" style="edgeLabel;resizable=0;html=1;align=left;verticalAlign=top;strokeColor=default;" parent="edge11" vertex="1" connectable="0">
          <mxGeometry x="8" y="237" as="geometry" />
        </mxCell>
        <mxCell id="edge33" value="" style="html=1;rounded=1;edgeStyle=orthogonalEdgeStyle;dashed=0;startArrow=none;endArrow=block;endSize=12;strokeColor=#595959;exitX=0.750;exitY=0.000;exitDx=0;exitDy=0;entryX=0.250;entryY=1.000;entryDx=0;entryDy=0;" parent="1" source="node6" target="node29" edge="1">
          <mxGeometry width="50" height="50" relative="1" as="geometry">
            <Array as="points">
              <mxPoint x="290" y="247" />
              <mxPoint x="895" y="247" />
            </Array>
          </mxGeometry>
        </mxCell>
        <mxCell id="label200" value="SD_ID_OID:SD_ID" style="edgeLabel;resizable=0;html=1;align=left;verticalAlign=top;strokeColor=default;" parent="edge33" vertex="1" connectable="0">
          <mxGeometry x="539" y="227" as="geometry" />
        </mxCell>
        <mxCell id="edge45" value="" style="html=1;rounded=1;edgeStyle=orthogonalEdgeStyle;dashed=0;startArrow=none;endArrow=block;endSize=12;strokeColor=#595959;exitX=0.250;exitY=0.000;exitDx=0;exitDy=0;entryX=0.500;entryY=1.001;entryDx=0;entryDy=0;" parent="1" source="node6" target="node72" edge="1">
          <mxGeometry width="50" height="50" relative="1" as="geometry">
            <Array as="points">
              <mxPoint x="183" y="257" />
              <mxPoint x="203" y="257" />
            </Array>
          </mxGeometry>
        </mxCell>
        <mxCell id="label272" value="STRING_LIST_ID_EID:STRING_LIST_ID" style="edgeLabel;resizable=0;html=1;align=left;verticalAlign=top;strokeColor=default;" parent="edge45" vertex="1" connectable="0">
          <mxGeometry x="-43" y="270" as="geometry" />
        </mxCell>
        <mxCell id="edge21" value="" style="html=1;rounded=1;edgeStyle=orthogonalEdgeStyle;dashed=0;startArrow=none;endArrow=block;endSize=12;strokeColor=#595959;exitX=0.500;exitY=0.000;exitDx=0;exitDy=0;entryX=0.750;entryY=1.000;entryDx=0;entryDy=0;" parent="1" source="node68" target="node29" edge="1">
          <mxGeometry width="50" height="50" relative="1" as="geometry">
            <Array as="points">
              <mxPoint x="1524" y="257" />
              <mxPoint x="1388" y="257" />
              <mxPoint x="1388" y="247" />
              <mxPoint x="1022" y="247" />
            </Array>
          </mxGeometry>
        </mxCell>
        <mxCell id="label128" value="SD_ID" style="edgeLabel;resizable=0;html=1;align=left;verticalAlign=top;strokeColor=default;" parent="edge21" vertex="1" connectable="0">
          <mxGeometry x="1484" y="268" as="geometry" />
        </mxCell>
        <mxCell id="edge26" value="" style="html=1;rounded=1;edgeStyle=orthogonalEdgeStyle;dashed=0;startArrow=none;endArrow=block;endSize=12;strokeColor=#595959;exitX=0.500;exitY=0.000;exitDx=0;exitDy=0;entryX=0.833;entryY=1.000;entryDx=0;entryDy=0;" parent="1" source="node19" target="node2" edge="1">
          <mxGeometry width="50" height="50" relative="1" as="geometry">
            <Array as="points">
              <mxPoint x="2240" y="661" />
              <mxPoint x="2742" y="661" />
              <mxPoint x="2742" y="651" />
              <mxPoint x="2112" y="651" />
            </Array>
          </mxGeometry>
        </mxCell>
        <mxCell id="label158" value="TBL_ID" style="edgeLabel;resizable=0;html=1;align=left;verticalAlign=top;strokeColor=default;" parent="edge26" vertex="1" connectable="0">
          <mxGeometry x="2636" y="601" as="geometry" />
        </mxCell>
        <mxCell id="edge41" value="" style="html=1;rounded=1;edgeStyle=orthogonalEdgeStyle;dashed=0;startArrow=none;endArrow=block;endSize=12;strokeColor=#595959;exitX=0.500;exitY=0.000;exitDx=0;exitDy=0;entryX=0.833;entryY=1.000;entryDx=0;entryDy=0;" parent="1" source="node8" target="node2" edge="1">
          <mxGeometry width="50" height="50" relative="1" as="geometry">
            <Array as="points">
              <mxPoint x="2742" y="651" />
              <mxPoint x="2112" y="651" />
            </Array>
          </mxGeometry>
        </mxCell>
        <mxCell id="label248" value="TBL_ID" style="edgeLabel;resizable=0;html=1;align=left;verticalAlign=top;strokeColor=default;" parent="edge41" vertex="1" connectable="0">
          <mxGeometry x="2404" y="631" as="geometry" />
        </mxCell>
        <mxCell id="edge30" value="" style="html=1;rounded=1;edgeStyle=orthogonalEdgeStyle;dashed=0;startArrow=none;endArrow=block;endSize=12;strokeColor=#595959;exitX=0.750;exitY=0.000;exitDx=0;exitDy=0;entryX=0.500;entryY=1.000;entryDx=0;entryDy=0;" parent="1" source="node2" target="node57" edge="1">
          <mxGeometry width="50" height="50" relative="1" as="geometry">
            <Array as="points">
              <mxPoint x="2091" y="247" />
              <mxPoint x="4183" y="247" />
            </Array>
          </mxGeometry>
        </mxCell>
        <mxCell id="label182" value="DB_ID" style="edgeLabel;resizable=0;html=1;align=left;verticalAlign=top;strokeColor=default;" parent="edge30" vertex="1" connectable="0">
          <mxGeometry x="3117" y="227" as="geometry" />
        </mxCell>
        <mxCell id="edge49" value="" style="html=1;rounded=1;edgeStyle=orthogonalEdgeStyle;dashed=0;startArrow=none;endArrow=block;endSize=12;strokeColor=#595959;exitX=0.250;exitY=0.000;exitDx=0;exitDy=0;entryX=0.750;entryY=1.000;entryDx=0;entryDy=0;" parent="1" source="node2" target="node29" edge="1">
          <mxGeometry width="50" height="50" relative="1" as="geometry">
            <Array as="points">
              <mxPoint x="1965" y="257" />
              <mxPoint x="1388" y="257" />
              <mxPoint x="1388" y="247" />
              <mxPoint x="1022" y="247" />
            </Array>
          </mxGeometry>
        </mxCell>
        <mxCell id="label296" value="SD_ID" style="edgeLabel;resizable=0;html=1;align=left;verticalAlign=top;strokeColor=default;" parent="edge49" vertex="1" connectable="0">
          <mxGeometry x="1464" y="237" as="geometry" />
        </mxCell>
        <mxCell id="edge12" value="" style="html=1;rounded=1;edgeStyle=orthogonalEdgeStyle;dashed=0;startArrow=none;endArrow=block;endSize=12;strokeColor=#595959;exitX=0.500;exitY=0.000;exitDx=0;exitDy=0;entryX=0.833;entryY=1.000;entryDx=0;entryDy=0;" parent="1" source="node20" target="node2" edge="1">
          <mxGeometry width="50" height="50" relative="1" as="geometry">
            <Array as="points">
              <mxPoint x="3264" y="661" />
              <mxPoint x="2742" y="661" />
              <mxPoint x="2742" y="651" />
              <mxPoint x="2112" y="651" />
            </Array>
          </mxGeometry>
        </mxCell>
        <mxCell id="label74" value="TBL_ID" style="edgeLabel;resizable=0;html=1;align=left;verticalAlign=top;strokeColor=default;" parent="edge12" vertex="1" connectable="0">
          <mxGeometry x="2719" y="601" as="geometry" />
        </mxCell>
        <mxCell id="edge8" value="" style="html=1;rounded=1;edgeStyle=orthogonalEdgeStyle;dashed=0;startArrow=none;endArrow=block;endSize=12;strokeColor=#595959;exitX=0.500;exitY=0.000;exitDx=0;exitDy=0;entryX=0.833;entryY=1.000;entryDx=0;entryDy=0;" parent="1" source="node18" target="node2" edge="1">
          <mxGeometry width="50" height="50" relative="1" as="geometry">
            <Array as="points">
              <mxPoint x="3012" y="661" />
              <mxPoint x="2742" y="661" />
              <mxPoint x="2742" y="651" />
              <mxPoint x="2112" y="651" />
            </Array>
          </mxGeometry>
        </mxCell>
        <mxCell id="label50" value="TBL_ID" style="edgeLabel;resizable=0;html=1;align=left;verticalAlign=top;strokeColor=default;" parent="edge8" vertex="1" connectable="0">
          <mxGeometry x="2764" y="641" as="geometry" />
        </mxCell>
        <mxCell id="edge6" value="" style="html=1;rounded=1;edgeStyle=orthogonalEdgeStyle;dashed=0;startArrow=none;endArrow=block;endSize=12;strokeColor=#595959;exitX=0.500;exitY=0.000;exitDx=0;exitDy=0;entryX=0.500;entryY=1.000;entryDx=0;entryDy=0;" parent="1" source="node53" target="node59" edge="1">
          <mxGeometry width="50" height="50" relative="1" as="geometry">
            <Array as="points" />
          </mxGeometry>
        </mxCell>
        <mxCell id="label38" value="TC_TXNID:TXN_ID" style="edgeLabel;resizable=0;html=1;align=left;verticalAlign=top;strokeColor=default;" parent="edge6" vertex="1" connectable="0">
          <mxGeometry x="382" y="2107" as="geometry" />
        </mxCell>
        <mxCell id="edge16" value="" style="html=1;rounded=1;edgeStyle=orthogonalEdgeStyle;dashed=0;startArrow=none;endArrow=block;endSize=12;strokeColor=#595959;exitX=0.500;exitY=0.000;exitDx=0;exitDy=0;entryX=0.500;entryY=1.000;entryDx=0;entryDy=0;" parent="1" source="node48" target="node40" edge="1">
          <mxGeometry width="50" height="50" relative="1" as="geometry">
            <Array as="points" />
          </mxGeometry>
        </mxCell>
        <mxCell id="label98" value="TYPE_NAME:TYPES_ID" style="edgeLabel;resizable=0;html=1;align=left;verticalAlign=top;strokeColor=default;" parent="edge16" vertex="1" connectable="0">
          <mxGeometry x="2059" y="1969" as="geometry" />
        </mxCell>
        <mxCell id="edge13" value="" style="html=1;rounded=1;edgeStyle=orthogonalEdgeStyle;dashed=0;startArrow=none;endArrow=block;endSize=12;strokeColor=#595959;exitX=0.750;exitY=0.000;exitDx=0;exitDy=0;entryX=0.833;entryY=1.000;entryDx=0;entryDy=0;" parent="1" source="node60" target="node62" edge="1">
          <mxGeometry width="50" height="50" relative="1" as="geometry">
            <Array as="points">
              <mxPoint x="268" y="2226" />
              <mxPoint x="224" y="2226" />
              <mxPoint x="224" y="2031" />
              <mxPoint x="254" y="2031" />
              <mxPoint x="254" y="2021" />
              <mxPoint x="184" y="2021" />
            </Array>
          </mxGeometry>
        </mxCell>
        <mxCell id="label80" value="POOL_ID" style="edgeLabel;resizable=0;html=1;align=left;verticalAlign=top;strokeColor=default;" parent="edge13" vertex="1" connectable="0">
          <mxGeometry x="198" y="2011" as="geometry" />
        </mxCell>
        <mxCell id="edge34" value="" style="html=1;rounded=1;edgeStyle=orthogonalEdgeStyle;dashed=0;startArrow=none;endArrow=block;endSize=12;strokeColor=#595959;exitX=0.250;exitY=0.000;exitDx=0;exitDy=0;entryX=0.500;entryY=1.000;entryDx=0;entryDy=0;" parent="1" source="node60" target="node55" edge="1">
          <mxGeometry width="50" height="50" relative="1" as="geometry">
            <Array as="points">
              <mxPoint x="170" y="2226" />
              <mxPoint x="65" y="2226" />
            </Array>
          </mxGeometry>
        </mxCell>
        <mxCell id="label206" value="RP_ID" style="edgeLabel;resizable=0;html=1;align=left;verticalAlign=top;strokeColor=default;" parent="edge34" vertex="1" connectable="0">
          <mxGeometry x="98" y="2206" as="geometry" />
        </mxCell>
        <mxCell id="edge3" value="" style="html=1;rounded=1;edgeStyle=orthogonalEdgeStyle;dashed=0;startArrow=none;endArrow=block;endSize=12;strokeColor=#595959;exitX=0.500;exitY=1.000;exitDx=0;exitDy=0;entryX=0.750;entryY=0.000;entryDx=0;entryDy=0;" parent="1" source="node62" target="node55" edge="1">
          <mxGeometry width="50" height="50" relative="1" as="geometry">
            <Array as="points">
              <mxPoint x="104" y="2031" />
              <mxPoint x="117" y="2031" />
            </Array>
          </mxGeometry>
        </mxCell>
        <mxCell id="label20" value="RP_ID" style="edgeLabel;resizable=0;html=1;align=left;verticalAlign=top;strokeColor=default;" parent="edge3" vertex="1" connectable="0">
          <mxGeometry x="64" y="2021" as="geometry" />
        </mxCell>
        <mxCell id="edge36" value="" style="html=1;rounded=1;edgeStyle=orthogonalEdgeStyle;dashed=0;startArrow=none;endArrow=block;endSize=12;strokeColor=#595959;exitX=0.750;exitY=0.000;exitDx=0;exitDy=0;entryX=0.833;entryY=1.000;entryDx=0;entryDy=0;" parent="1" source="node1" target="node62" edge="1">
          <mxGeometry width="50" height="50" relative="1" as="geometry">
            <Array as="points">
              <mxPoint x="205" y="2449" />
              <mxPoint x="328" y="2449" />
              <mxPoint x="328" y="2031" />
              <mxPoint x="254" y="2031" />
              <mxPoint x="254" y="2021" />
              <mxPoint x="184" y="2021" />
            </Array>
          </mxGeometry>
        </mxCell>
        <mxCell id="label218" value="POOL_ID" style="edgeLabel;resizable=0;html=1;align=left;verticalAlign=top;strokeColor=default;" parent="edge36" vertex="1" connectable="0">
          <mxGeometry x="272" y="2021" as="geometry" />
        </mxCell>
        <mxCell id="edge32" value="" style="html=1;rounded=1;edgeStyle=orthogonalEdgeStyle;dashed=0;startArrow=none;endArrow=block;endSize=12;strokeColor=#595959;exitX=0.250;exitY=0.000;exitDx=0;exitDy=0;entryX=0.500;entryY=1.000;entryDx=0;entryDy=0;" parent="1" source="node1" target="node25" edge="1">
          <mxGeometry width="50" height="50" relative="1" as="geometry">
            <Array as="points">
              <mxPoint x="99" y="2449" />
              <mxPoint x="-25" y="2449" />
            </Array>
          </mxGeometry>
        </mxCell>
        <mxCell id="label194" value="TRIGGER_ID" style="edgeLabel;resizable=0;html=1;align=left;verticalAlign=top;strokeColor=default;" parent="edge32" vertex="1" connectable="0">
          <mxGeometry x="-18" y="2452" as="geometry" />
        </mxCell>
        <mxCell id="edge5" value="" style="html=1;rounded=1;edgeStyle=orthogonalEdgeStyle;dashed=0;startArrow=none;endArrow=block;endSize=12;strokeColor=#595959;exitX=0.250;exitY=0.000;exitDx=0;exitDy=0;entryX=0.167;entryY=1.000;entryDx=0;entryDy=0;" parent="1" source="node55" target="node62" edge="1">
          <mxGeometry width="50" height="50" relative="1" as="geometry">
            <Array as="points">
              <mxPoint x="13" y="2031" />
              <mxPoint x="25" y="2031" />
            </Array>
          </mxGeometry>
        </mxCell>
        <mxCell id="label32" value="DEFAULT_POOL_ID:POOL_ID" style="edgeLabel;resizable=0;html=1;align=left;verticalAlign=top;strokeColor=default;" parent="edge5" vertex="1" connectable="0">
          <mxGeometry x="-147" y="2021" as="geometry" />
        </mxCell>
        <mxCell id="edge38" value="" style="html=1;rounded=1;edgeStyle=orthogonalEdgeStyle;dashed=0;startArrow=none;endArrow=block;endSize=12;strokeColor=#595959;exitX=0.500;exitY=0.000;exitDx=0;exitDy=0;entryX=0.500;entryY=1.000;entryDx=0;entryDy=0;" parent="1" source="node25" target="node55" edge="1">
          <mxGeometry width="50" height="50" relative="1" as="geometry">
            <Array as="points">
              <mxPoint x="-25" y="2226" />
              <mxPoint x="65" y="2226" />
            </Array>
          </mxGeometry>
        </mxCell>
        <mxCell id="label230" value="RP_ID" style="edgeLabel;resizable=0;html=1;align=left;verticalAlign=top;strokeColor=default;" parent="edge38" vertex="1" connectable="0">
          <mxGeometry x="-15" y="2203" as="geometry" />
        </mxCell>
      </root>
    </mxGraphModel>
  </diagram>
</mxfile>
